<svg width="978" height="978" viewBox="0 0 978 978" fill="none" xmlns="http://www.w3.org/2000/svg">
<circle cx="489" cy="489" r="489" fill="#52B0F3"/>
<path d="M543.456 104.92V109.464H550.784V113.688H543.456V118.616H551.744V123H537.984V100.536H551.744V104.92H543.456ZM567.457 123L564.033 118.04L561.153 123H555.233L561.121 113.88L555.073 105.144H561.217L564.641 110.072L567.521 105.144H573.441L567.457 114.136L573.601 123H567.457ZM582.781 107.672C583.314 106.84 584.05 106.168 584.989 105.656C585.928 105.144 587.026 104.888 588.285 104.888C589.757 104.888 591.09 105.261 592.285 106.008C593.48 106.755 594.418 107.821 595.101 109.208C595.805 110.595 596.157 112.205 596.157 114.04C596.157 115.875 595.805 117.496 595.101 118.904C594.418 120.291 593.48 121.368 592.285 122.136C591.09 122.883 589.757 123.256 588.285 123.256C587.048 123.256 585.949 123 584.989 122.488C584.05 121.976 583.314 121.315 582.781 120.504V131.512H577.309V105.144H582.781V107.672ZM590.589 114.04C590.589 112.675 590.205 111.608 589.437 110.84C588.69 110.051 587.762 109.656 586.653 109.656C585.565 109.656 584.637 110.051 583.869 110.84C583.122 111.629 582.749 112.707 582.749 114.072C582.749 115.437 583.122 116.515 583.869 117.304C584.637 118.093 585.565 118.488 586.653 118.488C587.741 118.488 588.669 118.093 589.437 117.304C590.205 116.493 590.589 115.405 590.589 114.04ZM606.1 108.12C606.74 107.139 607.54 106.371 608.5 105.816C609.46 105.24 610.526 104.952 611.7 104.952V110.744H610.196C608.83 110.744 607.806 111.043 607.124 111.64C606.441 112.216 606.1 113.24 606.1 114.712V123H600.628V105.144H606.1V108.12ZM632.747 113.784C632.747 114.296 632.715 114.829 632.651 115.384H620.267C620.353 116.493 620.705 117.347 621.323 117.944C621.963 118.52 622.742 118.808 623.659 118.808C625.025 118.808 625.974 118.232 626.507 117.08H632.331C632.033 118.253 631.489 119.309 630.699 120.248C629.931 121.187 628.961 121.923 627.787 122.456C626.614 122.989 625.302 123.256 623.851 123.256C622.102 123.256 620.545 122.883 619.179 122.136C617.814 121.389 616.747 120.323 615.979 118.936C615.211 117.549 614.827 115.928 614.827 114.072C614.827 112.216 615.201 110.595 615.947 109.208C616.715 107.821 617.782 106.755 619.147 106.008C620.513 105.261 622.081 104.888 623.851 104.888C625.579 104.888 627.115 105.251 628.459 105.976C629.803 106.701 630.849 107.736 631.595 109.08C632.363 110.424 632.747 111.992 632.747 113.784ZM627.147 112.344C627.147 111.405 626.827 110.659 626.187 110.104C625.547 109.549 624.747 109.272 623.787 109.272C622.87 109.272 622.091 109.539 621.451 110.072C620.833 110.605 620.449 111.363 620.299 112.344H627.147ZM644.498 123.256C642.941 123.256 641.554 122.989 640.338 122.456C639.122 121.923 638.162 121.197 637.458 120.28C636.754 119.341 636.359 118.296 636.274 117.144H641.682C641.746 117.763 642.034 118.264 642.546 118.648C643.058 119.032 643.687 119.224 644.434 119.224C645.117 119.224 645.639 119.096 646.002 118.84C646.386 118.563 646.578 118.211 646.578 117.784C646.578 117.272 646.311 116.899 645.778 116.664C645.245 116.408 644.381 116.131 643.186 115.832C641.906 115.533 640.839 115.224 639.986 114.904C639.133 114.563 638.397 114.04 637.778 113.336C637.159 112.611 636.85 111.64 636.85 110.424C636.85 109.4 637.127 108.472 637.682 107.64C638.258 106.787 639.09 106.115 640.178 105.624C641.287 105.133 642.599 104.888 644.114 104.888C646.354 104.888 648.114 105.443 649.394 106.552C650.695 107.661 651.442 109.133 651.634 110.968H646.578C646.493 110.349 646.215 109.859 645.746 109.496C645.298 109.133 644.701 108.952 643.954 108.952C643.314 108.952 642.823 109.08 642.482 109.336C642.141 109.571 641.97 109.901 641.97 110.328C641.97 110.84 642.237 111.224 642.77 111.48C643.325 111.736 644.178 111.992 645.33 112.248C646.653 112.589 647.73 112.931 648.562 113.272C649.394 113.592 650.119 114.125 650.738 114.872C651.378 115.597 651.709 116.579 651.73 117.816C651.73 118.861 651.431 119.8 650.834 120.632C650.258 121.443 649.415 122.083 648.306 122.552C647.218 123.021 645.949 123.256 644.498 123.256ZM663.942 123.256C662.384 123.256 660.998 122.989 659.782 122.456C658.566 121.923 657.606 121.197 656.902 120.28C656.198 119.341 655.803 118.296 655.718 117.144H661.126C661.19 117.763 661.478 118.264 661.99 118.648C662.502 119.032 663.131 119.224 663.878 119.224C664.56 119.224 665.083 119.096 665.446 118.84C665.83 118.563 666.022 118.211 666.022 117.784C666.022 117.272 665.755 116.899 665.222 116.664C664.688 116.408 663.824 116.131 662.63 115.832C661.35 115.533 660.283 115.224 659.43 114.904C658.576 114.563 657.84 114.04 657.222 113.336C656.603 112.611 656.294 111.64 656.294 110.424C656.294 109.4 656.571 108.472 657.126 107.64C657.702 106.787 658.534 106.115 659.622 105.624C660.731 105.133 662.043 104.888 663.558 104.888C665.798 104.888 667.558 105.443 668.838 106.552C670.139 107.661 670.886 109.133 671.078 110.968H666.022C665.936 110.349 665.659 109.859 665.19 109.496C664.742 109.133 664.144 108.952 663.398 108.952C662.758 108.952 662.267 109.08 661.926 109.336C661.584 109.571 661.414 109.901 661.414 110.328C661.414 110.84 661.68 111.224 662.214 111.48C662.768 111.736 663.622 111.992 664.774 112.248C666.096 112.589 667.174 112.931 668.006 113.272C668.838 113.592 669.563 114.125 670.182 114.872C670.822 115.597 671.152 116.579 671.174 117.816C671.174 118.861 670.875 119.8 670.278 120.632C669.702 121.443 668.859 122.083 667.75 122.552C666.662 123.021 665.392 123.256 663.942 123.256Z" fill="white"/>
<path d="M457.104 885.768C457.104 887.069 456.805 888.264 456.208 889.352C455.611 890.419 454.693 891.283 453.456 891.944C452.219 892.605 450.683 892.936 448.848 892.936H445.456V901H439.984V878.536H448.848C450.64 878.536 452.155 878.845 453.392 879.464C454.629 880.083 455.557 880.936 456.176 882.024C456.795 883.112 457.104 884.36 457.104 885.768ZM448.432 888.584C449.477 888.584 450.256 888.339 450.768 887.848C451.28 887.357 451.536 886.664 451.536 885.768C451.536 884.872 451.28 884.179 450.768 883.688C450.256 883.197 449.477 882.952 448.432 882.952H445.456V888.584H448.432ZM467.025 886.12C467.665 885.139 468.465 884.371 469.425 883.816C470.385 883.24 471.451 882.952 472.625 882.952V888.744H471.121C469.755 888.744 468.731 889.043 468.049 889.64C467.366 890.216 467.025 891.24 467.025 892.712V901H461.553V883.144H467.025V886.12ZM479.592 881.288C478.632 881.288 477.843 881.011 477.224 880.456C476.627 879.88 476.328 879.176 476.328 878.344C476.328 877.491 476.627 876.787 477.224 876.232C477.843 875.656 478.632 875.368 479.592 875.368C480.531 875.368 481.299 875.656 481.896 876.232C482.515 876.787 482.824 877.491 482.824 878.344C482.824 879.176 482.515 879.88 481.896 880.456C481.299 881.011 480.531 881.288 479.592 881.288ZM482.312 883.144V901H476.84V883.144H482.312ZM495.142 901.256C493.584 901.256 492.198 900.989 490.982 900.456C489.766 899.923 488.806 899.197 488.102 898.28C487.398 897.341 487.003 896.296 486.918 895.144H492.326C492.39 895.763 492.678 896.264 493.19 896.648C493.702 897.032 494.331 897.224 495.078 897.224C495.76 897.224 496.283 897.096 496.646 896.84C497.03 896.563 497.222 896.211 497.222 895.784C497.222 895.272 496.955 894.899 496.422 894.664C495.888 894.408 495.024 894.131 493.83 893.832C492.55 893.533 491.483 893.224 490.63 892.904C489.776 892.563 489.04 892.04 488.422 891.336C487.803 890.611 487.494 889.64 487.494 888.424C487.494 887.4 487.771 886.472 488.326 885.64C488.902 884.787 489.734 884.115 490.822 883.624C491.931 883.133 493.243 882.888 494.758 882.888C496.998 882.888 498.758 883.443 500.038 884.552C501.339 885.661 502.086 887.133 502.278 888.968H497.222C497.136 888.349 496.859 887.859 496.39 887.496C495.942 887.133 495.344 886.952 494.598 886.952C493.958 886.952 493.467 887.08 493.126 887.336C492.784 887.571 492.614 887.901 492.614 888.328C492.614 888.84 492.88 889.224 493.414 889.48C493.968 889.736 494.822 889.992 495.974 890.248C497.296 890.589 498.374 890.931 499.206 891.272C500.038 891.592 500.763 892.125 501.382 892.872C502.022 893.597 502.352 894.579 502.374 895.816C502.374 896.861 502.075 897.8 501.478 898.632C500.902 899.443 500.059 900.083 498.95 900.552C497.862 901.021 496.592 901.256 495.142 901.256ZM530.106 882.952C532.324 882.952 534.084 883.624 535.386 884.968C536.708 886.312 537.37 888.179 537.37 890.568V901H531.93V891.304C531.93 890.152 531.62 889.267 531.002 888.648C530.404 888.008 529.572 887.688 528.506 887.688C527.439 887.688 526.596 888.008 525.978 888.648C525.38 889.267 525.082 890.152 525.082 891.304V901H519.642V891.304C519.642 890.152 519.332 889.267 518.714 888.648C518.116 888.008 517.284 887.688 516.218 887.688C515.151 887.688 514.308 888.008 513.69 888.648C513.092 889.267 512.794 890.152 512.794 891.304V901H507.322V883.144H512.794V885.384C513.348 884.637 514.074 884.051 514.97 883.624C515.866 883.176 516.879 882.952 518.01 882.952C519.354 882.952 520.548 883.24 521.594 883.816C522.66 884.392 523.492 885.213 524.09 886.28C524.708 885.299 525.551 884.499 526.618 883.88C527.684 883.261 528.847 882.952 530.106 882.952ZM541.709 892.04C541.709 890.205 542.05 888.595 542.733 887.208C543.437 885.821 544.386 884.755 545.581 884.008C546.775 883.261 548.109 882.888 549.581 882.888C550.839 882.888 551.938 883.144 552.877 883.656C553.837 884.168 554.573 884.84 555.085 885.672V883.144H560.557V901H555.085V898.472C554.551 899.304 553.805 899.976 552.845 900.488C551.906 901 550.807 901.256 549.549 901.256C548.098 901.256 546.775 900.883 545.581 900.136C544.386 899.368 543.437 898.291 542.733 896.904C542.05 895.496 541.709 893.875 541.709 892.04ZM555.085 892.072C555.085 890.707 554.701 889.629 553.933 888.84C553.186 888.051 552.269 887.656 551.181 887.656C550.093 887.656 549.165 888.051 548.397 888.84C547.65 889.608 547.277 890.675 547.277 892.04C547.277 893.405 547.65 894.493 548.397 895.304C549.165 896.093 550.093 896.488 551.181 896.488C552.269 896.488 553.186 896.093 553.933 895.304C554.701 894.515 555.085 893.437 555.085 892.072Z" fill="white"/>
<path d="M77.112 457.224C75.4693 457.224 73.9973 456.957 72.696 456.424C71.3947 455.891 70.3493 455.101 69.56 454.056C68.792 453.011 68.3867 451.752 68.344 450.28H74.168C74.2533 451.112 74.5413 451.752 75.032 452.2C75.5227 452.627 76.1627 452.84 76.952 452.84C77.7627 452.84 78.4027 452.659 78.872 452.296C79.3413 451.912 79.576 451.389 79.576 450.728C79.576 450.173 79.384 449.715 79 449.352C78.6373 448.989 78.1787 448.691 77.624 448.456C77.0907 448.221 76.3227 447.955 75.32 447.656C73.8693 447.208 72.6853 446.76 71.768 446.312C70.8507 445.864 70.0613 445.203 69.4 444.328C68.7387 443.453 68.408 442.312 68.408 440.904C68.408 438.813 69.1653 437.181 70.68 436.008C72.1947 434.813 74.168 434.216 76.6 434.216C79.0747 434.216 81.0693 434.813 82.584 436.008C84.0987 437.181 84.9093 438.824 85.016 440.936H79.096C79.0533 440.211 78.7867 439.645 78.296 439.24C77.8053 438.813 77.176 438.6 76.408 438.6C75.7467 438.6 75.2133 438.781 74.808 439.144C74.4027 439.485 74.2 439.987 74.2 440.648C74.2 441.373 74.5413 441.939 75.224 442.344C75.9067 442.749 76.9733 443.187 78.424 443.656C79.8747 444.147 81.048 444.616 81.944 445.064C82.8613 445.512 83.6507 446.163 84.312 447.016C84.9733 447.869 85.304 448.968 85.304 450.312C85.304 451.592 84.9733 452.755 84.312 453.8C83.672 454.845 82.7333 455.677 81.496 456.296C80.2587 456.915 78.7973 457.224 77.112 457.224ZM106.272 460.84L103.392 456.968C102.538 457.139 101.706 457.224 100.896 457.224C98.7835 457.224 96.8422 456.733 95.0715 455.752C93.3222 454.771 91.9248 453.405 90.8795 451.656C89.8555 449.885 89.3435 447.901 89.3435 445.704C89.3435 443.507 89.8555 441.533 90.8795 439.784C91.9248 438.035 93.3222 436.669 95.0715 435.688C96.8422 434.707 98.7835 434.216 100.896 434.216C103.008 434.216 104.938 434.707 106.688 435.688C108.458 436.669 109.845 438.035 110.848 439.784C111.872 441.533 112.384 443.507 112.384 445.704C112.384 447.624 111.989 449.384 111.2 450.984C110.432 452.563 109.354 453.875 107.968 454.92L112.896 460.84H106.272ZM94.9435 445.704C94.9435 447.688 95.4768 449.277 96.5435 450.472C97.6315 451.645 99.0822 452.232 100.896 452.232C102.688 452.232 104.117 451.635 105.184 450.44C106.272 449.245 106.816 447.667 106.816 445.704C106.816 443.72 106.272 442.141 105.184 440.968C104.117 439.773 102.688 439.176 100.896 439.176C99.0822 439.176 97.6315 439.763 96.5435 440.936C95.4768 442.109 94.9435 443.699 94.9435 445.704ZM122.562 452.776H129.73V457H117.09V434.536H122.562V452.776Z" fill="white"/>
<path d="M46.104 590.768C46.104 592.069 45.8053 593.264 45.208 594.352C44.6107 595.419 43.6933 596.283 42.456 596.944C41.2187 597.605 39.6827 597.936 37.848 597.936H34.456V606H28.984V583.536H37.848C39.64 583.536 41.1547 583.845 42.392 584.464C43.6293 585.083 44.5573 585.936 45.176 587.024C45.7947 588.112 46.104 589.36 46.104 590.768ZM37.432 593.584C38.4773 593.584 39.256 593.339 39.768 592.848C40.28 592.357 40.536 591.664 40.536 590.768C40.536 589.872 40.28 589.179 39.768 588.688C39.256 588.197 38.4773 587.952 37.432 587.952H34.456V593.584H37.432ZM58.6808 606.256C56.9314 606.256 55.3528 605.883 53.9448 605.136C52.5581 604.389 51.4594 603.323 50.6488 601.936C49.8594 600.549 49.4648 598.928 49.4648 597.072C49.4648 595.237 49.8701 593.627 50.6808 592.24C51.4914 590.832 52.6008 589.755 54.0088 589.008C55.4168 588.261 56.9954 587.888 58.7448 587.888C60.4941 587.888 62.0728 588.261 63.4808 589.008C64.8888 589.755 65.9981 590.832 66.8088 592.24C67.6194 593.627 68.0248 595.237 68.0248 597.072C68.0248 598.907 67.6088 600.528 66.7768 601.936C65.9661 603.323 64.8461 604.389 63.4168 605.136C62.0088 605.883 60.4301 606.256 58.6808 606.256ZM58.6808 601.52C59.7261 601.52 60.6114 601.136 61.3368 600.368C62.0834 599.6 62.4568 598.501 62.4568 597.072C62.4568 595.643 62.0941 594.544 61.3688 593.776C60.6648 593.008 59.7901 592.624 58.7448 592.624C57.6781 592.624 56.7928 593.008 56.0888 593.776C55.3848 594.523 55.0328 595.621 55.0328 597.072C55.0328 598.501 55.3741 599.6 56.0568 600.368C56.7608 601.136 57.6354 601.52 58.6808 601.52ZM79.7918 606.256C78.2344 606.256 76.8478 605.989 75.6318 605.456C74.4158 604.923 73.4558 604.197 72.7518 603.28C72.0478 602.341 71.6531 601.296 71.5678 600.144H76.9758C77.0398 600.763 77.3278 601.264 77.8398 601.648C78.3518 602.032 78.9811 602.224 79.7278 602.224C80.4104 602.224 80.9331 602.096 81.2958 601.84C81.6798 601.563 81.8718 601.211 81.8718 600.784C81.8718 600.272 81.6051 599.899 81.0718 599.664C80.5384 599.408 79.6744 599.131 78.4798 598.832C77.1998 598.533 76.1331 598.224 75.2798 597.904C74.4264 597.563 73.6904 597.04 73.0718 596.336C72.4531 595.611 72.1438 594.64 72.1438 593.424C72.1438 592.4 72.4211 591.472 72.9758 590.64C73.5518 589.787 74.3838 589.115 75.4718 588.624C76.5811 588.133 77.8931 587.888 79.4078 587.888C81.6478 587.888 83.4078 588.443 84.6878 589.552C85.9891 590.661 86.7358 592.133 86.9278 593.968H81.8718C81.7864 593.349 81.5091 592.859 81.0398 592.496C80.5918 592.133 79.9944 591.952 79.2478 591.952C78.6078 591.952 78.1171 592.08 77.7758 592.336C77.4344 592.571 77.2638 592.901 77.2638 593.328C77.2638 593.84 77.5304 594.224 78.0638 594.48C78.6184 594.736 79.4718 594.992 80.6238 595.248C81.9464 595.589 83.0238 595.931 83.8558 596.272C84.6878 596.592 85.4131 597.125 86.0318 597.872C86.6718 598.597 87.0024 599.579 87.0238 600.816C87.0238 601.861 86.7251 602.8 86.1278 603.632C85.5518 604.443 84.7091 605.083 83.5998 605.552C82.5118 606.021 81.2424 606.256 79.7918 606.256ZM101.924 601.36V606H99.1395C97.1555 606 95.6088 605.52 94.4995 604.56C93.3902 603.579 92.8355 601.989 92.8355 599.792V592.688H90.6595V588.144H92.8355V583.792H98.3075V588.144H101.891V592.688H98.3075V599.856C98.3075 600.389 98.4355 600.773 98.6915 601.008C98.9475 601.243 99.3742 601.36 99.9715 601.36H101.924ZM121.484 590.64C121.078 589.893 120.492 589.328 119.724 588.944C118.977 588.539 118.092 588.336 117.068 588.336C115.297 588.336 113.878 588.923 112.812 590.096C111.745 591.248 111.212 592.795 111.212 594.736C111.212 596.805 111.766 598.427 112.876 599.6C114.006 600.752 115.553 601.328 117.516 601.328C118.86 601.328 119.99 600.987 120.908 600.304C121.846 599.621 122.529 598.64 122.956 597.36H116.012V593.328H127.916V598.416C127.51 599.781 126.817 601.051 125.836 602.224C124.876 603.397 123.649 604.347 122.156 605.072C120.662 605.797 118.977 606.16 117.1 606.16C114.881 606.16 112.897 605.68 111.148 604.72C109.42 603.739 108.065 602.384 107.084 600.656C106.124 598.928 105.644 596.955 105.644 594.736C105.644 592.517 106.124 590.544 107.084 588.816C108.065 587.067 109.42 585.712 111.148 584.752C112.876 583.771 114.849 583.28 117.068 583.28C119.756 583.28 122.017 583.931 123.852 585.232C125.708 586.533 126.934 588.336 127.532 590.64H121.484ZM138.019 591.12C138.659 590.139 139.459 589.371 140.419 588.816C141.379 588.24 142.445 587.952 143.619 587.952V593.744H142.115C140.749 593.744 139.725 594.043 139.043 594.64C138.36 595.216 138.019 596.24 138.019 597.712V606H132.547V588.144H138.019V591.12ZM164.666 596.784C164.666 597.296 164.634 597.829 164.57 598.384H152.186C152.271 599.493 152.623 600.347 153.242 600.944C153.882 601.52 154.661 601.808 155.578 601.808C156.943 601.808 157.893 601.232 158.426 600.08H164.25C163.951 601.253 163.407 602.309 162.618 603.248C161.85 604.187 160.879 604.923 159.706 605.456C158.533 605.989 157.221 606.256 155.77 606.256C154.021 606.256 152.463 605.883 151.098 605.136C149.733 604.389 148.666 603.323 147.898 601.936C147.13 600.549 146.746 598.928 146.746 597.072C146.746 595.216 147.119 593.595 147.866 592.208C148.634 590.821 149.701 589.755 151.066 589.008C152.431 588.261 153.999 587.888 155.77 587.888C157.498 587.888 159.034 588.251 160.378 588.976C161.722 589.701 162.767 590.736 163.514 592.08C164.282 593.424 164.666 594.992 164.666 596.784ZM159.066 595.344C159.066 594.405 158.746 593.659 158.106 593.104C157.466 592.549 156.666 592.272 155.706 592.272C154.789 592.272 154.01 592.539 153.37 593.072C152.751 593.605 152.367 594.363 152.218 595.344H159.066ZM177.281 606.224C175.638 606.224 174.166 605.957 172.865 605.424C171.563 604.891 170.518 604.101 169.729 603.056C168.961 602.011 168.555 600.752 168.513 599.28H174.337C174.422 600.112 174.71 600.752 175.201 601.2C175.691 601.627 176.331 601.84 177.121 601.84C177.931 601.84 178.571 601.659 179.041 601.296C179.51 600.912 179.745 600.389 179.745 599.728C179.745 599.173 179.553 598.715 179.169 598.352C178.806 597.989 178.347 597.691 177.793 597.456C177.259 597.221 176.491 596.955 175.489 596.656C174.038 596.208 172.854 595.76 171.937 595.312C171.019 594.864 170.23 594.203 169.569 593.328C168.907 592.453 168.577 591.312 168.577 589.904C168.577 587.813 169.334 586.181 170.849 585.008C172.363 583.813 174.337 583.216 176.769 583.216C179.243 583.216 181.238 583.813 182.753 585.008C184.267 586.181 185.078 587.824 185.185 589.936H179.265C179.222 589.211 178.955 588.645 178.465 588.24C177.974 587.813 177.345 587.6 176.577 587.6C175.915 587.6 175.382 587.781 174.977 588.144C174.571 588.485 174.369 588.987 174.369 589.648C174.369 590.373 174.71 590.939 175.393 591.344C176.075 591.749 177.142 592.187 178.593 592.656C180.043 593.147 181.217 593.616 182.113 594.064C183.03 594.512 183.819 595.163 184.481 596.016C185.142 596.869 185.473 597.968 185.473 599.312C185.473 600.592 185.142 601.755 184.481 602.8C183.841 603.845 182.902 604.677 181.665 605.296C180.427 605.915 178.966 606.224 177.281 606.224ZM206.44 609.84L203.56 605.968C202.707 606.139 201.875 606.224 201.064 606.224C198.952 606.224 197.011 605.733 195.24 604.752C193.491 603.771 192.094 602.405 191.048 600.656C190.024 598.885 189.512 596.901 189.512 594.704C189.512 592.507 190.024 590.533 191.048 588.784C192.094 587.035 193.491 585.669 195.24 584.688C197.011 583.707 198.952 583.216 201.064 583.216C203.176 583.216 205.107 583.707 206.856 584.688C208.627 585.669 210.014 587.035 211.016 588.784C212.04 590.533 212.552 592.507 212.552 594.704C212.552 596.624 212.158 598.384 211.368 599.984C210.6 601.563 209.523 602.875 208.136 603.92L213.064 609.84H206.44ZM195.112 594.704C195.112 596.688 195.646 598.277 196.712 599.472C197.8 600.645 199.251 601.232 201.064 601.232C202.856 601.232 204.286 600.635 205.352 599.44C206.44 598.245 206.984 596.667 206.984 594.704C206.984 592.72 206.44 591.141 205.352 589.968C204.286 588.773 202.856 588.176 201.064 588.176C199.251 588.176 197.8 588.763 196.712 589.936C195.646 591.109 195.112 592.699 195.112 594.704ZM222.731 601.776H229.899V606H217.259V583.536H222.731V601.776Z" fill="white"/>
<path d="M802.424 423.536V446H796.952V432.528L791.928 446H787.512L782.456 432.496V446H776.984V423.536H783.448L789.752 439.088L795.992 423.536H802.424ZM816.087 446.256C814.338 446.256 812.759 445.883 811.351 445.136C809.964 444.389 808.866 443.323 808.055 441.936C807.266 440.549 806.871 438.928 806.871 437.072C806.871 435.237 807.276 433.627 808.087 432.24C808.898 430.832 810.007 429.755 811.415 429.008C812.823 428.261 814.402 427.888 816.151 427.888C817.9 427.888 819.479 428.261 820.887 429.008C822.295 429.755 823.404 430.832 824.215 432.24C825.026 433.627 825.431 435.237 825.431 437.072C825.431 438.907 825.015 440.528 824.183 441.936C823.372 443.323 822.252 444.389 820.823 445.136C819.415 445.883 817.836 446.256 816.087 446.256ZM816.087 441.52C817.132 441.52 818.018 441.136 818.743 440.368C819.49 439.6 819.863 438.501 819.863 437.072C819.863 435.643 819.5 434.544 818.775 433.776C818.071 433.008 817.196 432.624 816.151 432.624C815.084 432.624 814.199 433.008 813.495 433.776C812.791 434.523 812.439 435.621 812.439 437.072C812.439 438.501 812.78 439.6 813.463 440.368C814.167 441.136 815.042 441.52 816.087 441.52ZM840.814 427.952C842.905 427.952 844.569 428.635 845.806 430C847.065 431.344 847.694 433.2 847.694 435.568V446H842.254V436.304C842.254 435.109 841.945 434.181 841.326 433.52C840.707 432.859 839.875 432.528 838.83 432.528C837.785 432.528 836.953 432.859 836.334 433.52C835.715 434.181 835.406 435.109 835.406 436.304V446H829.934V428.144H835.406V430.512C835.961 429.723 836.707 429.104 837.646 428.656C838.585 428.187 839.641 427.952 840.814 427.952ZM859.881 427.888C861.139 427.888 862.238 428.144 863.177 428.656C864.137 429.168 864.873 429.84 865.385 430.672V428.144H870.857V445.968C870.857 447.611 870.526 449.093 869.865 450.416C869.225 451.76 868.233 452.827 866.889 453.616C865.566 454.405 863.913 454.8 861.929 454.8C859.283 454.8 857.139 454.171 855.497 452.912C853.854 451.675 852.915 449.989 852.681 447.856H858.089C858.259 448.539 858.665 449.072 859.305 449.456C859.945 449.861 860.734 450.064 861.673 450.064C862.803 450.064 863.699 449.733 864.361 449.072C865.043 448.432 865.385 447.397 865.385 445.968V443.44C864.851 444.272 864.115 444.955 863.177 445.488C862.238 446 861.139 446.256 859.881 446.256C858.409 446.256 857.075 445.883 855.881 445.136C854.686 444.368 853.737 443.291 853.033 441.904C852.35 440.496 852.009 438.875 852.009 437.04C852.009 435.205 852.35 433.595 853.033 432.208C853.737 430.821 854.686 429.755 855.881 429.008C857.075 428.261 858.409 427.888 859.881 427.888ZM865.385 437.072C865.385 435.707 865.001 434.629 864.233 433.84C863.486 433.051 862.569 432.656 861.481 432.656C860.393 432.656 859.465 433.051 858.697 433.84C857.95 434.608 857.577 435.675 857.577 437.04C857.577 438.405 857.95 439.493 858.697 440.304C859.465 441.093 860.393 441.488 861.481 441.488C862.569 441.488 863.486 441.093 864.233 440.304C865.001 439.515 865.385 438.437 865.385 437.072ZM884.543 446.256C882.794 446.256 881.215 445.883 879.807 445.136C878.421 444.389 877.322 443.323 876.511 441.936C875.722 440.549 875.327 438.928 875.327 437.072C875.327 435.237 875.733 433.627 876.543 432.24C877.354 430.832 878.463 429.755 879.871 429.008C881.279 428.261 882.858 427.888 884.607 427.888C886.357 427.888 887.935 428.261 889.343 429.008C890.751 429.755 891.861 430.832 892.671 432.24C893.482 433.627 893.887 435.237 893.887 437.072C893.887 438.907 893.471 440.528 892.639 441.936C891.829 443.323 890.709 444.389 889.279 445.136C887.871 445.883 886.293 446.256 884.543 446.256ZM884.543 441.52C885.589 441.52 886.474 441.136 887.199 440.368C887.946 439.6 888.319 438.501 888.319 437.072C888.319 435.643 887.957 434.544 887.231 433.776C886.527 433.008 885.653 432.624 884.607 432.624C883.541 432.624 882.655 433.008 881.951 433.776C881.247 434.523 880.895 435.621 880.895 437.072C880.895 438.501 881.237 439.6 881.919 440.368C882.623 441.136 883.498 441.52 884.543 441.52ZM906.806 423.536C909.174 423.536 911.244 424.005 913.014 424.944C914.785 425.883 916.15 427.205 917.11 428.912C918.092 430.597 918.582 432.549 918.582 434.768C918.582 436.965 918.092 438.917 917.11 440.624C916.15 442.331 914.774 443.653 912.982 444.592C911.212 445.531 909.153 446 906.806 446H898.39V423.536H906.806ZM906.454 441.264C908.524 441.264 910.134 440.699 911.286 439.568C912.438 438.437 913.014 436.837 913.014 434.768C913.014 432.699 912.438 431.088 911.286 429.936C910.134 428.784 908.524 428.208 906.454 428.208H903.862V441.264H906.454ZM936.84 434.48C938.142 434.757 939.187 435.408 939.976 436.432C940.766 437.435 941.16 438.587 941.16 439.888C941.16 441.765 940.499 443.259 939.176 444.368C937.875 445.456 936.051 446 933.704 446H923.24V423.536H933.352C935.635 423.536 937.416 424.059 938.696 425.104C939.998 426.149 940.648 427.568 940.648 429.36C940.648 430.683 940.296 431.781 939.592 432.656C938.91 433.531 937.992 434.139 936.84 434.48ZM928.712 432.624H932.296C933.192 432.624 933.875 432.432 934.344 432.048C934.835 431.643 935.08 431.056 935.08 430.288C935.08 429.52 934.835 428.933 934.344 428.528C933.875 428.123 933.192 427.92 932.296 427.92H928.712V432.624ZM932.744 441.584C933.662 441.584 934.366 441.381 934.856 440.976C935.368 440.549 935.624 439.941 935.624 439.152C935.624 438.363 935.358 437.744 934.824 437.296C934.312 436.848 933.598 436.624 932.68 436.624H928.712V441.584H932.744Z" fill="white"/>
<path d="M795.424 583.536V606H789.952V592.528L784.928 606H780.512L775.456 592.496V606H769.984V583.536H776.448L782.752 599.088L788.992 583.536H795.424ZM809.087 606.256C807.338 606.256 805.759 605.883 804.351 605.136C802.964 604.389 801.866 603.323 801.055 601.936C800.266 600.549 799.871 598.928 799.871 597.072C799.871 595.237 800.276 593.627 801.087 592.24C801.898 590.832 803.007 589.755 804.415 589.008C805.823 588.261 807.402 587.888 809.151 587.888C810.9 587.888 812.479 588.261 813.887 589.008C815.295 589.755 816.404 590.832 817.215 592.24C818.026 593.627 818.431 595.237 818.431 597.072C818.431 598.907 818.015 600.528 817.183 601.936C816.372 603.323 815.252 604.389 813.823 605.136C812.415 605.883 810.836 606.256 809.087 606.256ZM809.087 601.52C810.132 601.52 811.018 601.136 811.743 600.368C812.49 599.6 812.863 598.501 812.863 597.072C812.863 595.643 812.5 594.544 811.775 593.776C811.071 593.008 810.196 592.624 809.151 592.624C808.084 592.624 807.199 593.008 806.495 593.776C805.791 594.523 805.439 595.621 805.439 597.072C805.439 598.501 805.78 599.6 806.463 600.368C807.167 601.136 808.042 601.52 809.087 601.52ZM833.814 587.952C835.905 587.952 837.569 588.635 838.806 590C840.065 591.344 840.694 593.2 840.694 595.568V606H835.254V596.304C835.254 595.109 834.945 594.181 834.326 593.52C833.707 592.859 832.875 592.528 831.83 592.528C830.785 592.528 829.953 592.859 829.334 593.52C828.715 594.181 828.406 595.109 828.406 596.304V606H822.934V588.144H828.406V590.512C828.961 589.723 829.707 589.104 830.646 588.656C831.585 588.187 832.641 587.952 833.814 587.952ZM852.881 587.888C854.139 587.888 855.238 588.144 856.177 588.656C857.137 589.168 857.873 589.84 858.385 590.672V588.144H863.857V605.968C863.857 607.611 863.526 609.093 862.865 610.416C862.225 611.76 861.233 612.827 859.889 613.616C858.566 614.405 856.913 614.8 854.929 614.8C852.283 614.8 850.139 614.171 848.497 612.912C846.854 611.675 845.915 609.989 845.681 607.856H851.089C851.259 608.539 851.665 609.072 852.305 609.456C852.945 609.861 853.734 610.064 854.673 610.064C855.803 610.064 856.699 609.733 857.361 609.072C858.043 608.432 858.385 607.397 858.385 605.968V603.44C857.851 604.272 857.115 604.955 856.177 605.488C855.238 606 854.139 606.256 852.881 606.256C851.409 606.256 850.075 605.883 848.881 605.136C847.686 604.368 846.737 603.291 846.033 601.904C845.35 600.496 845.009 598.875 845.009 597.04C845.009 595.205 845.35 593.595 846.033 592.208C846.737 590.821 847.686 589.755 848.881 589.008C850.075 588.261 851.409 587.888 852.881 587.888ZM858.385 597.072C858.385 595.707 858.001 594.629 857.233 593.84C856.486 593.051 855.569 592.656 854.481 592.656C853.393 592.656 852.465 593.051 851.697 593.84C850.95 594.608 850.577 595.675 850.577 597.04C850.577 598.405 850.95 599.493 851.697 600.304C852.465 601.093 853.393 601.488 854.481 601.488C855.569 601.488 856.486 601.093 857.233 600.304C858.001 599.515 858.385 598.437 858.385 597.072ZM877.543 606.256C875.794 606.256 874.215 605.883 872.807 605.136C871.421 604.389 870.322 603.323 869.511 601.936C868.722 600.549 868.327 598.928 868.327 597.072C868.327 595.237 868.733 593.627 869.543 592.24C870.354 590.832 871.463 589.755 872.871 589.008C874.279 588.261 875.858 587.888 877.607 587.888C879.357 587.888 880.935 588.261 882.343 589.008C883.751 589.755 884.861 590.832 885.671 592.24C886.482 593.627 886.887 595.237 886.887 597.072C886.887 598.907 886.471 600.528 885.639 601.936C884.829 603.323 883.709 604.389 882.279 605.136C880.871 605.883 879.293 606.256 877.543 606.256ZM877.543 601.52C878.589 601.52 879.474 601.136 880.199 600.368C880.946 599.6 881.319 598.501 881.319 597.072C881.319 595.643 880.957 594.544 880.231 593.776C879.527 593.008 878.653 592.624 877.607 592.624C876.541 592.624 875.655 593.008 874.951 593.776C874.247 594.523 873.895 595.621 873.895 597.072C873.895 598.501 874.237 599.6 874.919 600.368C875.623 601.136 876.498 601.52 877.543 601.52ZM899.518 606.256C897.769 606.256 896.19 605.883 894.782 605.136C893.396 604.389 892.297 603.323 891.486 601.936C890.697 600.549 890.302 598.928 890.302 597.072C890.302 595.237 890.708 593.627 891.518 592.24C892.329 590.832 893.438 589.755 894.846 589.008C896.254 588.261 897.833 587.888 899.582 587.888C901.332 587.888 902.91 588.261 904.318 589.008C905.726 589.755 906.836 590.832 907.646 592.24C908.457 593.627 908.862 595.237 908.862 597.072C908.862 598.907 908.446 600.528 907.614 601.936C906.804 603.323 905.684 604.389 904.254 605.136C902.846 605.883 901.268 606.256 899.518 606.256ZM899.518 601.52C900.564 601.52 901.449 601.136 902.174 600.368C902.921 599.6 903.294 598.501 903.294 597.072C903.294 595.643 902.932 594.544 902.206 593.776C901.502 593.008 900.628 592.624 899.582 592.624C898.516 592.624 897.63 593.008 896.926 593.776C896.222 594.523 895.87 595.621 895.87 597.072C895.87 598.501 896.212 599.6 896.894 600.368C897.598 601.136 898.473 601.52 899.518 601.52ZM920.629 606.256C919.072 606.256 917.685 605.989 916.469 605.456C915.253 604.923 914.293 604.197 913.589 603.28C912.885 602.341 912.491 601.296 912.405 600.144H917.813C917.877 600.763 918.165 601.264 918.677 601.648C919.189 602.032 919.819 602.224 920.565 602.224C921.248 602.224 921.771 602.096 922.133 601.84C922.517 601.563 922.709 601.211 922.709 600.784C922.709 600.272 922.443 599.899 921.909 599.664C921.376 599.408 920.512 599.131 919.317 598.832C918.037 598.533 916.971 598.224 916.117 597.904C915.264 597.563 914.528 597.04 913.909 596.336C913.291 595.611 912.981 594.64 912.981 593.424C912.981 592.4 913.259 591.472 913.813 590.64C914.389 589.787 915.221 589.115 916.309 588.624C917.419 588.133 918.731 587.888 920.245 587.888C922.485 587.888 924.245 588.443 925.525 589.552C926.827 590.661 927.573 592.133 927.765 593.968H922.709C922.624 593.349 922.347 592.859 921.877 592.496C921.429 592.133 920.832 591.952 920.085 591.952C919.445 591.952 918.955 592.08 918.613 592.336C918.272 592.571 918.101 592.901 918.101 593.328C918.101 593.84 918.368 594.224 918.901 594.48C919.456 594.736 920.309 594.992 921.461 595.248C922.784 595.589 923.861 595.931 924.693 596.272C925.525 596.592 926.251 597.125 926.869 597.872C927.509 598.597 927.84 599.579 927.861 600.816C927.861 601.861 927.563 602.8 926.965 603.632C926.389 604.443 925.547 605.083 924.437 605.552C923.349 606.021 922.08 606.256 920.629 606.256ZM949.641 596.784C949.641 597.296 949.609 597.829 949.545 598.384H937.161C937.246 599.493 937.598 600.347 938.217 600.944C938.857 601.52 939.636 601.808 940.553 601.808C941.918 601.808 942.868 601.232 943.401 600.08H949.225C948.926 601.253 948.382 602.309 947.593 603.248C946.825 604.187 945.854 604.923 944.681 605.456C943.508 605.989 942.196 606.256 940.745 606.256C938.996 606.256 937.438 605.883 936.073 605.136C934.708 604.389 933.641 603.323 932.873 601.936C932.105 600.549 931.721 598.928 931.721 597.072C931.721 595.216 932.094 593.595 932.841 592.208C933.609 590.821 934.676 589.755 936.041 589.008C937.406 588.261 938.974 587.888 940.745 587.888C942.473 587.888 944.009 588.251 945.353 588.976C946.697 589.701 947.742 590.736 948.489 592.08C949.257 593.424 949.641 594.992 949.641 596.784ZM944.041 595.344C944.041 594.405 943.721 593.659 943.081 593.104C942.441 592.549 941.641 592.272 940.681 592.272C939.764 592.272 938.985 592.539 938.345 593.072C937.726 593.605 937.342 594.363 937.193 595.344H944.041Z" fill="white"/>
<path d="M285 127H282.088L270.376 109.24V127H267.464V104.664H270.376L282.088 122.392V104.664H285V127ZM299.212 127.288C297.569 127.288 296.076 126.915 294.732 126.168C293.409 125.421 292.364 124.365 291.596 123C290.849 121.613 290.476 120.013 290.476 118.2C290.476 116.408 290.86 114.829 291.628 113.464C292.417 112.077 293.484 111.021 294.828 110.296C296.172 109.549 297.676 109.176 299.34 109.176C301.004 109.176 302.508 109.549 303.852 110.296C305.196 111.021 306.252 112.067 307.02 113.432C307.809 114.797 308.204 116.387 308.204 118.2C308.204 120.013 307.799 121.613 306.988 123C306.199 124.365 305.121 125.421 303.756 126.168C302.391 126.915 300.876 127.288 299.212 127.288ZM299.212 124.728C300.257 124.728 301.239 124.483 302.156 123.992C303.073 123.501 303.809 122.765 304.364 121.784C304.94 120.803 305.228 119.608 305.228 118.2C305.228 116.792 304.951 115.597 304.396 114.616C303.841 113.635 303.116 112.909 302.22 112.44C301.324 111.949 300.353 111.704 299.308 111.704C298.241 111.704 297.26 111.949 296.364 112.44C295.489 112.909 294.785 113.635 294.252 114.616C293.719 115.597 293.452 116.792 293.452 118.2C293.452 119.629 293.708 120.835 294.22 121.816C294.753 122.797 295.457 123.533 296.332 124.024C297.207 124.493 298.167 124.728 299.212 124.728ZM312.545 118.168C312.545 116.376 312.907 114.808 313.633 113.464C314.358 112.099 315.35 111.043 316.609 110.296C317.889 109.549 319.318 109.176 320.897 109.176C322.262 109.176 323.531 109.496 324.705 110.136C325.878 110.755 326.774 111.576 327.393 112.6V103.32H330.337V127H327.393V123.704C326.817 124.749 325.963 125.613 324.833 126.296C323.702 126.957 322.379 127.288 320.865 127.288C319.307 127.288 317.889 126.904 316.609 126.136C315.35 125.368 314.358 124.291 313.633 122.904C312.907 121.517 312.545 119.939 312.545 118.168ZM327.393 118.2C327.393 116.877 327.126 115.725 326.593 114.744C326.059 113.763 325.334 113.016 324.417 112.504C323.521 111.971 322.529 111.704 321.441 111.704C320.353 111.704 319.361 111.96 318.465 112.472C317.569 112.984 316.854 113.731 316.321 114.712C315.787 115.693 315.521 116.845 315.521 118.168C315.521 119.512 315.787 120.685 316.321 121.688C316.854 122.669 317.569 123.427 318.465 123.96C319.361 124.472 320.353 124.728 321.441 124.728C322.529 124.728 323.521 124.472 324.417 123.96C325.334 123.427 326.059 122.669 326.593 121.688C327.126 120.685 327.393 119.523 327.393 118.2ZM352.858 117.56C352.858 118.115 352.826 118.701 352.762 119.32H338.746C338.852 121.048 339.439 122.403 340.506 123.384C341.594 124.344 342.906 124.824 344.442 124.824C345.7 124.824 346.746 124.536 347.578 123.96C348.431 123.363 349.028 122.573 349.37 121.592H352.506C352.036 123.277 351.098 124.653 349.69 125.72C348.282 126.765 346.532 127.288 344.442 127.288C342.778 127.288 341.284 126.915 339.962 126.168C338.66 125.421 337.636 124.365 336.89 123C336.143 121.613 335.77 120.013 335.77 118.2C335.77 116.387 336.132 114.797 336.858 113.432C337.583 112.067 338.596 111.021 339.898 110.296C341.22 109.549 342.735 109.176 344.442 109.176C346.106 109.176 347.578 109.539 348.858 110.264C350.138 110.989 351.119 111.992 351.802 113.272C352.506 114.531 352.858 115.96 352.858 117.56ZM349.85 116.952C349.85 115.843 349.604 114.893 349.114 114.104C348.623 113.293 347.951 112.685 347.098 112.28C346.266 111.853 345.338 111.64 344.314 111.64C342.842 111.64 341.583 112.109 340.538 113.048C339.514 113.987 338.927 115.288 338.778 116.952H349.85Z" fill="white"/>
<path d="M160.208 253L154.896 243.88H151.376V253H148.464V230.696H155.664C157.349 230.696 158.768 230.984 159.92 231.56C161.093 232.136 161.968 232.915 162.544 233.896C163.12 234.877 163.408 235.997 163.408 237.256C163.408 238.792 162.96 240.147 162.064 241.32C161.189 242.493 159.867 243.272 158.096 243.656L163.696 253H160.208ZM151.376 241.544H155.664C157.243 241.544 158.427 241.16 159.216 240.392C160.005 239.603 160.4 238.557 160.4 237.256C160.4 235.933 160.005 234.909 159.216 234.184C158.448 233.459 157.264 233.096 155.664 233.096H151.376V241.544ZM185.533 243.56C185.533 244.115 185.501 244.701 185.437 245.32H171.421C171.527 247.048 172.114 248.403 173.181 249.384C174.269 250.344 175.581 250.824 177.117 250.824C178.375 250.824 179.421 250.536 180.253 249.96C181.106 249.363 181.703 248.573 182.045 247.592H185.181C184.711 249.277 183.773 250.653 182.365 251.72C180.957 252.765 179.207 253.288 177.117 253.288C175.453 253.288 173.959 252.915 172.637 252.168C171.335 251.421 170.311 250.365 169.565 249C168.818 247.613 168.445 246.013 168.445 244.2C168.445 242.387 168.807 240.797 169.533 239.432C170.258 238.067 171.271 237.021 172.573 236.296C173.895 235.549 175.41 235.176 177.117 235.176C178.781 235.176 180.253 235.539 181.533 236.264C182.813 236.989 183.794 237.992 184.477 239.272C185.181 240.531 185.533 241.96 185.533 243.56ZM182.525 242.952C182.525 241.843 182.279 240.893 181.789 240.104C181.298 239.293 180.626 238.685 179.773 238.28C178.941 237.853 178.013 237.64 176.989 237.64C175.517 237.64 174.258 238.109 173.213 239.048C172.189 239.987 171.602 241.288 171.453 242.952H182.525ZM197.185 253.288C195.841 253.288 194.635 253.064 193.569 252.616C192.502 252.147 191.659 251.507 191.041 250.696C190.422 249.864 190.081 248.915 190.017 247.848H193.025C193.11 248.723 193.515 249.437 194.241 249.992C194.987 250.547 195.958 250.824 197.153 250.824C198.262 250.824 199.137 250.579 199.777 250.088C200.417 249.597 200.737 248.979 200.737 248.232C200.737 247.464 200.395 246.899 199.713 246.536C199.03 246.152 197.974 245.779 196.545 245.416C195.243 245.075 194.177 244.733 193.345 244.392C192.534 244.029 191.83 243.507 191.233 242.824C190.657 242.12 190.369 241.203 190.369 240.072C190.369 239.176 190.635 238.355 191.169 237.608C191.702 236.861 192.459 236.275 193.441 235.848C194.422 235.4 195.542 235.176 196.801 235.176C198.742 235.176 200.31 235.667 201.505 236.648C202.699 237.629 203.339 238.973 203.425 240.68H200.513C200.449 239.763 200.075 239.027 199.393 238.472C198.731 237.917 197.835 237.64 196.705 237.64C195.659 237.64 194.827 237.864 194.209 238.312C193.59 238.76 193.281 239.347 193.281 240.072C193.281 240.648 193.462 241.128 193.825 241.512C194.209 241.875 194.678 242.173 195.233 242.408C195.809 242.621 196.598 242.867 197.601 243.144C198.859 243.485 199.883 243.827 200.673 244.168C201.462 244.488 202.134 244.979 202.689 245.64C203.265 246.301 203.563 247.165 203.585 248.232C203.585 249.192 203.318 250.056 202.785 250.824C202.251 251.592 201.494 252.2 200.513 252.648C199.553 253.075 198.443 253.288 197.185 253.288ZM212.847 237.864V248.2C212.847 249.053 213.029 249.661 213.391 250.024C213.754 250.365 214.383 250.536 215.279 250.536H217.423V253H214.799C213.178 253 211.962 252.627 211.151 251.88C210.341 251.133 209.935 249.907 209.935 248.2V237.864H207.663V235.464H209.935V231.048H212.847V235.464H217.423V237.864H212.847ZM245.867 248.04H236.139L234.347 253H231.275L239.339 230.824H242.699L250.731 253H247.659L245.867 248.04ZM245.035 245.672L241.003 234.408L236.971 245.672H245.035ZM258.757 238.696C259.333 237.693 260.187 236.861 261.317 236.2C262.469 235.517 263.803 235.176 265.317 235.176C266.875 235.176 268.283 235.549 269.541 236.296C270.821 237.043 271.824 238.099 272.549 239.464C273.275 240.808 273.637 242.376 273.637 244.168C273.637 245.939 273.275 247.517 272.549 248.904C271.824 250.291 270.821 251.368 269.541 252.136C268.283 252.904 266.875 253.288 265.317 253.288C263.824 253.288 262.501 252.957 261.349 252.296C260.219 251.613 259.355 250.771 258.757 249.768V261.32H255.845V235.464H258.757V238.696ZM270.661 244.168C270.661 242.845 270.395 241.693 269.861 240.712C269.328 239.731 268.603 238.984 267.685 238.472C266.789 237.96 265.797 237.704 264.709 237.704C263.643 237.704 262.651 237.971 261.733 238.504C260.837 239.016 260.112 239.773 259.557 240.776C259.024 241.757 258.757 242.899 258.757 244.2C258.757 245.523 259.024 246.685 259.557 247.688C260.112 248.669 260.837 249.427 261.733 249.96C262.651 250.472 263.643 250.728 264.709 250.728C265.797 250.728 266.789 250.472 267.685 249.96C268.603 249.427 269.328 248.669 269.861 247.688C270.395 246.685 270.661 245.512 270.661 244.168ZM280.574 232.616C280.02 232.616 279.55 232.424 279.166 232.04C278.782 231.656 278.59 231.187 278.59 230.632C278.59 230.077 278.782 229.608 279.166 229.224C279.55 228.84 280.02 228.648 280.574 228.648C281.108 228.648 281.556 228.84 281.918 229.224C282.302 229.608 282.494 230.077 282.494 230.632C282.494 231.187 282.302 231.656 281.918 232.04C281.556 232.424 281.108 232.616 280.574 232.616ZM281.982 235.464V253H279.07V235.464H281.982Z" fill="white"/>
<path d="M662.36 237.16C661.741 235.859 660.845 234.856 659.672 234.152C658.499 233.427 657.133 233.064 655.576 233.064C654.019 233.064 652.611 233.427 651.352 234.152C650.115 234.856 649.133 235.88 648.408 237.224C647.704 238.547 647.352 240.083 647.352 241.832C647.352 243.581 647.704 245.117 648.408 246.44C649.133 247.763 650.115 248.787 651.352 249.512C652.611 250.216 654.019 250.568 655.576 250.568C657.752 250.568 659.544 249.917 660.952 248.616C662.36 247.315 663.181 245.555 663.416 243.336H654.52V240.968H666.52V243.208C666.349 245.043 665.773 246.728 664.792 248.264C663.811 249.779 662.52 250.984 660.92 251.88C659.32 252.755 657.539 253.192 655.576 253.192C653.507 253.192 651.619 252.712 649.912 251.752C648.205 250.771 646.851 249.416 645.848 247.688C644.867 245.96 644.376 244.008 644.376 241.832C644.376 239.656 644.867 237.704 645.848 235.976C646.851 234.227 648.205 232.872 649.912 231.912C651.619 230.931 653.507 230.44 655.576 230.44C657.944 230.44 660.035 231.027 661.848 232.2C663.683 233.373 665.016 235.027 665.848 237.16H662.36ZM674.882 238.312C675.394 237.309 676.12 236.531 677.058 235.976C678.018 235.421 679.181 235.144 680.546 235.144V238.152H679.778C676.514 238.152 674.882 239.923 674.882 243.464V253H671.97V235.464H674.882V238.312ZM684.42 244.168C684.42 242.376 684.782 240.808 685.508 239.464C686.233 238.099 687.225 237.043 688.484 236.296C689.764 235.549 691.182 235.176 692.74 235.176C694.276 235.176 695.609 235.507 696.74 236.168C697.87 236.829 698.713 237.661 699.268 238.664V235.464H702.212V253H699.268V249.736C698.692 250.76 697.828 251.613 696.676 252.296C695.545 252.957 694.222 253.288 692.708 253.288C691.15 253.288 689.742 252.904 688.484 252.136C687.225 251.368 686.233 250.291 685.508 248.904C684.782 247.517 684.42 245.939 684.42 244.168ZM699.268 244.2C699.268 242.877 699.001 241.725 698.468 240.744C697.934 239.763 697.209 239.016 696.292 238.504C695.396 237.971 694.404 237.704 693.316 237.704C692.228 237.704 691.236 237.96 690.34 238.472C689.444 238.984 688.729 239.731 688.196 240.712C687.662 241.693 687.396 242.845 687.396 244.168C687.396 245.512 687.662 246.685 688.196 247.688C688.729 248.669 689.444 249.427 690.34 249.96C691.236 250.472 692.228 250.728 693.316 250.728C694.404 250.728 695.396 250.472 696.292 249.96C697.209 249.427 697.934 248.669 698.468 247.688C699.001 246.685 699.268 245.523 699.268 244.2ZM711.645 238.696C712.221 237.693 713.074 236.861 714.205 236.2C715.357 235.517 716.69 235.176 718.205 235.176C719.762 235.176 721.17 235.549 722.429 236.296C723.709 237.043 724.711 238.099 725.437 239.464C726.162 240.808 726.525 242.376 726.525 244.168C726.525 245.939 726.162 247.517 725.437 248.904C724.711 250.291 723.709 251.368 722.429 252.136C721.17 252.904 719.762 253.288 718.205 253.288C716.711 253.288 715.389 252.957 714.237 252.296C713.106 251.613 712.242 250.771 711.645 249.768V261.32H708.733V235.464H711.645V238.696ZM723.549 244.168C723.549 242.845 723.282 241.693 722.749 240.712C722.215 239.731 721.49 238.984 720.573 238.472C719.677 237.96 718.685 237.704 717.597 237.704C716.53 237.704 715.538 237.971 714.621 238.504C713.725 239.016 712.999 239.773 712.445 240.776C711.911 241.757 711.645 242.899 711.645 244.2C711.645 245.523 711.911 246.685 712.445 247.688C712.999 248.669 713.725 249.427 714.621 249.96C715.538 250.472 716.53 250.728 717.597 250.728C718.685 250.728 719.677 250.472 720.573 249.96C721.49 249.427 722.215 248.669 722.749 247.688C723.282 246.685 723.549 245.512 723.549 244.168ZM740.662 235.144C741.984 235.144 743.179 235.432 744.246 236.008C745.312 236.563 746.144 237.405 746.742 238.536C747.36 239.667 747.67 241.043 747.67 242.664V253H744.79V243.08C744.79 241.331 744.352 239.997 743.478 239.08C742.603 238.141 741.408 237.672 739.894 237.672C738.358 237.672 737.131 238.152 736.214 239.112C735.318 240.072 734.87 241.469 734.87 243.304V253H731.958V229.32H734.87V237.96C735.446 237.064 736.235 236.371 737.238 235.88C738.262 235.389 739.403 235.144 740.662 235.144ZM771.915 257.224L767.467 252.776C766.379 253.075 765.269 253.224 764.139 253.224C762.069 253.224 760.181 252.744 758.475 251.784C756.768 250.803 755.413 249.448 754.411 247.72C753.429 245.971 752.939 244.008 752.939 241.832C752.939 239.656 753.429 237.704 754.411 235.976C755.413 234.227 756.768 232.872 758.475 231.912C760.181 230.931 762.069 230.44 764.139 230.44C766.229 230.44 768.128 230.931 769.835 231.912C771.541 232.872 772.885 234.216 773.867 235.944C774.848 237.672 775.339 239.635 775.339 241.832C775.339 243.965 774.869 245.885 773.931 247.592C772.992 249.299 771.701 250.643 770.059 251.624L775.691 257.224H771.915ZM755.915 241.832C755.915 243.603 756.267 245.16 756.971 246.504C757.696 247.848 758.677 248.883 759.915 249.608C761.173 250.333 762.581 250.696 764.139 250.696C765.696 250.696 767.093 250.333 768.331 249.608C769.589 248.883 770.571 247.848 771.275 246.504C772 245.16 772.363 243.603 772.363 241.832C772.363 240.04 772 238.483 771.275 237.16C770.571 235.816 769.6 234.781 768.363 234.056C767.125 233.331 765.717 232.968 764.139 232.968C762.56 232.968 761.152 233.331 759.915 234.056C758.677 234.781 757.696 235.816 756.971 237.16C756.267 238.483 755.915 240.04 755.915 241.832ZM783.757 250.632H791.565V253H780.845V230.696H783.757V250.632ZM819.573 248.04H809.845L808.053 253H804.981L813.045 230.824H816.405L824.437 253H821.365L819.573 248.04ZM818.741 245.672L814.709 234.408L810.677 245.672H818.741ZM832.463 238.696C833.039 237.693 833.893 236.861 835.023 236.2C836.175 235.517 837.509 235.176 839.023 235.176C840.581 235.176 841.989 235.549 843.247 236.296C844.527 237.043 845.53 238.099 846.255 239.464C846.981 240.808 847.343 242.376 847.343 244.168C847.343 245.939 846.981 247.517 846.255 248.904C845.53 250.291 844.527 251.368 843.247 252.136C841.989 252.904 840.581 253.288 839.023 253.288C837.53 253.288 836.207 252.957 835.055 252.296C833.925 251.613 833.061 250.771 832.463 249.768V261.32H829.551V235.464H832.463V238.696ZM844.367 244.168C844.367 242.845 844.101 241.693 843.567 240.712C843.034 239.731 842.309 238.984 841.391 238.472C840.495 237.96 839.503 237.704 838.415 237.704C837.349 237.704 836.357 237.971 835.439 238.504C834.543 239.016 833.818 239.773 833.263 240.776C832.73 241.757 832.463 242.899 832.463 244.2C832.463 245.523 832.73 246.685 833.263 247.688C833.818 248.669 834.543 249.427 835.439 249.96C836.357 250.472 837.349 250.728 838.415 250.728C839.503 250.728 840.495 250.472 841.391 249.96C842.309 249.427 843.034 248.669 843.567 247.688C844.101 246.685 844.367 245.512 844.367 244.168ZM854.281 232.616C853.726 232.616 853.257 232.424 852.873 232.04C852.489 231.656 852.297 231.187 852.297 230.632C852.297 230.077 852.489 229.608 852.873 229.224C853.257 228.84 853.726 228.648 854.281 228.648C854.814 228.648 855.262 228.84 855.625 229.224C856.009 229.608 856.201 230.077 856.201 230.632C856.201 231.187 856.009 231.656 855.625 232.04C855.262 232.424 854.814 232.616 854.281 232.616ZM855.689 235.464V253H852.777V235.464H855.689Z" fill="white"/>
<path d="M748 485.5C748 628.266 632.266 744 489.5 744C346.734 744 231 628.266 231 485.5C231 342.734 346.734 227 489.5 227C632.266 227 748 342.734 748 485.5Z" fill="#7415AE"/>
<path d="M593.736 576.28H586.44L585.096 580H582.792L588.84 563.368H591.36L597.384 580H595.08L593.736 576.28ZM593.112 574.504L590.088 566.056L587.064 574.504H593.112ZM607.628 566.608C609.228 566.608 610.524 567.096 611.516 568.072C612.508 569.032 613.004 570.424 613.004 572.248V580H610.844V572.56C610.844 571.248 610.516 570.248 609.86 569.56C609.204 568.856 608.308 568.504 607.172 568.504C606.02 568.504 605.1 568.864 604.412 569.584C603.74 570.304 603.404 571.352 603.404 572.728V580H601.22V566.848H603.404V568.72C603.836 568.048 604.42 567.528 605.156 567.16C605.908 566.792 606.732 566.608 607.628 566.608ZM620.435 568.648V576.4C620.435 577.04 620.571 577.496 620.843 577.768C621.115 578.024 621.587 578.152 622.259 578.152H623.867V580H621.899C620.683 580 619.771 579.72 619.163 579.16C618.555 578.6 618.251 577.68 618.251 576.4V568.648H616.547V566.848H618.251V563.536H620.435V566.848H623.867V568.648H620.435ZM640.52 563.272C642.344 563.272 643.92 563.616 645.248 564.304C646.592 564.976 647.616 565.944 648.32 567.208C649.04 568.472 649.4 569.96 649.4 571.672C649.4 573.384 649.04 574.872 648.32 576.136C647.616 577.384 646.592 578.344 645.248 579.016C643.92 579.672 642.344 580 640.52 580H635.312V563.272H640.52ZM640.52 578.2C642.68 578.2 644.328 577.632 645.464 576.496C646.6 575.344 647.168 573.736 647.168 571.672C647.168 569.592 646.592 567.968 645.44 566.8C644.304 565.632 642.664 565.048 640.52 565.048H637.496V578.2H640.52ZM665.481 572.92C665.481 573.336 665.457 573.776 665.409 574.24H654.897C654.977 575.536 655.417 576.552 656.217 577.288C657.033 578.008 658.017 578.368 659.169 578.368C660.113 578.368 660.897 578.152 661.521 577.72C662.161 577.272 662.609 576.68 662.865 575.944H665.217C664.865 577.208 664.161 578.24 663.105 579.04C662.049 579.824 660.737 580.216 659.169 580.216C657.921 580.216 656.801 579.936 655.809 579.376C654.833 578.816 654.065 578.024 653.505 577C652.945 575.96 652.665 574.76 652.665 573.4C652.665 572.04 652.937 570.848 653.481 569.824C654.025 568.8 654.785 568.016 655.761 567.472C656.753 566.912 657.889 566.632 659.169 566.632C660.417 566.632 661.521 566.904 662.481 567.448C663.441 567.992 664.177 568.744 664.689 569.704C665.217 570.648 665.481 571.72 665.481 572.92ZM663.225 572.464C663.225 571.632 663.041 570.92 662.673 570.328C662.305 569.72 661.801 569.264 661.161 568.96C660.537 568.64 659.841 568.48 659.073 568.48C657.969 568.48 657.025 568.832 656.241 569.536C655.473 570.24 655.033 571.216 654.921 572.464H663.225ZM674.22 580.216C673.212 580.216 672.308 580.048 671.508 579.712C670.708 579.36 670.076 578.88 669.612 578.272C669.148 577.648 668.892 576.936 668.844 576.136H671.1C671.164 576.792 671.468 577.328 672.012 577.744C672.572 578.16 673.3 578.368 674.196 578.368C675.028 578.368 675.684 578.184 676.164 577.816C676.644 577.448 676.884 576.984 676.884 576.424C676.884 575.848 676.628 575.424 676.116 575.152C675.604 574.864 674.812 574.584 673.74 574.312C672.764 574.056 671.964 573.8 671.34 573.544C670.732 573.272 670.204 572.88 669.756 572.368C669.324 571.84 669.108 571.152 669.108 570.304C669.108 569.632 669.308 569.016 669.708 568.456C670.108 567.896 670.676 567.456 671.412 567.136C672.148 566.8 672.988 566.632 673.932 566.632C675.388 566.632 676.564 567 677.46 567.736C678.356 568.472 678.836 569.48 678.9 570.76H676.716C676.668 570.072 676.388 569.52 675.876 569.104C675.38 568.688 674.708 568.48 673.86 568.48C673.076 568.48 672.452 568.648 671.988 568.984C671.524 569.32 671.292 569.76 671.292 570.304C671.292 570.736 671.428 571.096 671.7 571.384C671.988 571.656 672.34 571.88 672.756 572.056C673.188 572.216 673.78 572.4 674.532 572.608C675.476 572.864 676.244 573.12 676.836 573.376C677.428 573.616 677.932 573.984 678.348 574.48C678.78 574.976 679.004 575.624 679.02 576.424C679.02 577.144 678.82 577.792 678.42 578.368C678.02 578.944 677.452 579.4 676.716 579.736C675.996 580.056 675.164 580.216 674.22 580.216ZM684.431 564.712C684.015 564.712 683.663 564.568 683.375 564.28C683.087 563.992 682.943 563.64 682.943 563.224C682.943 562.808 683.087 562.456 683.375 562.168C683.663 561.88 684.015 561.736 684.431 561.736C684.831 561.736 685.167 561.88 685.439 562.168C685.727 562.456 685.871 562.808 685.871 563.224C685.871 563.64 685.727 563.992 685.439 564.28C685.167 564.568 684.831 564.712 684.431 564.712ZM685.487 566.848V580H683.303V566.848H685.487ZM695.833 566.632C696.969 566.632 697.961 566.88 698.809 567.376C699.673 567.872 700.313 568.496 700.729 569.248V566.848H702.937V580.288C702.937 581.488 702.681 582.552 702.169 583.48C701.657 584.424 700.921 585.16 699.961 585.688C699.017 586.216 697.913 586.48 696.649 586.48C694.921 586.48 693.481 586.072 692.329 585.256C691.177 584.44 690.497 583.328 690.289 581.92H692.449C692.689 582.72 693.185 583.36 693.937 583.84C694.689 584.336 695.593 584.584 696.649 584.584C697.849 584.584 698.825 584.208 699.577 583.456C700.345 582.704 700.729 581.648 700.729 580.288V577.528C700.297 578.296 699.657 578.936 698.809 579.448C697.961 579.96 696.969 580.216 695.833 580.216C694.665 580.216 693.601 579.928 692.641 579.352C691.697 578.776 690.953 577.968 690.409 576.928C689.865 575.888 689.593 574.704 689.593 573.376C689.593 572.032 689.865 570.856 690.409 569.848C690.953 568.824 691.697 568.032 692.641 567.472C693.601 566.912 694.665 566.632 695.833 566.632ZM700.729 573.4C700.729 572.408 700.529 571.544 700.129 570.808C699.729 570.072 699.185 569.512 698.497 569.128C697.825 568.728 697.081 568.528 696.265 568.528C695.449 568.528 694.705 568.72 694.033 569.104C693.361 569.488 692.825 570.048 692.425 570.784C692.025 571.52 691.825 572.384 691.825 573.376C691.825 574.384 692.025 575.264 692.425 576.016C692.825 576.752 693.361 577.32 694.033 577.72C694.705 578.104 695.449 578.296 696.265 578.296C697.081 578.296 697.825 578.104 698.497 577.72C699.185 577.32 699.729 576.752 700.129 576.016C700.529 575.264 700.729 574.392 700.729 573.4ZM714.236 566.608C715.836 566.608 717.132 567.096 718.124 568.072C719.116 569.032 719.612 570.424 719.612 572.248V580H717.452V572.56C717.452 571.248 717.124 570.248 716.468 569.56C715.812 568.856 714.916 568.504 713.78 568.504C712.628 568.504 711.708 568.864 711.02 569.584C710.348 570.304 710.012 571.352 710.012 572.728V580H707.828V566.848H710.012V568.72C710.444 568.048 711.028 567.528 711.764 567.16C712.516 566.792 713.34 566.608 714.236 566.608Z" fill="white"/>
<path d="M275.656 580L271.672 573.16H269.032V580H266.848V563.272H272.248C273.512 563.272 274.576 563.488 275.44 563.92C276.32 564.352 276.976 564.936 277.408 565.672C277.84 566.408 278.056 567.248 278.056 568.192C278.056 569.344 277.72 570.36 277.048 571.24C276.392 572.12 275.4 572.704 274.072 572.992L278.272 580H275.656ZM269.032 571.408H272.248C273.432 571.408 274.32 571.12 274.912 570.544C275.504 569.952 275.8 569.168 275.8 568.192C275.8 567.2 275.504 566.432 274.912 565.888C274.336 565.344 273.448 565.072 272.248 565.072H269.032V571.408ZM294.65 572.92C294.65 573.336 294.626 573.776 294.578 574.24H284.066C284.146 575.536 284.586 576.552 285.386 577.288C286.202 578.008 287.186 578.368 288.338 578.368C289.282 578.368 290.066 578.152 290.69 577.72C291.33 577.272 291.778 576.68 292.034 575.944H294.386C294.034 577.208 293.33 578.24 292.274 579.04C291.218 579.824 289.906 580.216 288.338 580.216C287.09 580.216 285.97 579.936 284.978 579.376C284.002 578.816 283.234 578.024 282.674 577C282.114 575.96 281.834 574.76 281.834 573.4C281.834 572.04 282.106 570.848 282.65 569.824C283.194 568.8 283.954 568.016 284.93 567.472C285.922 566.912 287.058 566.632 288.338 566.632C289.586 566.632 290.69 566.904 291.65 567.448C292.61 567.992 293.346 568.744 293.858 569.704C294.386 570.648 294.65 571.72 294.65 572.92ZM292.394 572.464C292.394 571.632 292.21 570.92 291.842 570.328C291.474 569.72 290.97 569.264 290.33 568.96C289.706 568.64 289.01 568.48 288.242 568.48C287.138 568.48 286.194 568.832 285.41 569.536C284.642 570.24 284.202 571.216 284.09 572.464H292.394ZM297.916 573.376C297.916 572.032 298.188 570.856 298.732 569.848C299.276 568.824 300.02 568.032 300.964 567.472C301.924 566.912 302.988 566.632 304.156 566.632C305.308 566.632 306.308 566.88 307.156 567.376C308.004 567.872 308.636 568.496 309.052 569.248V566.848H311.26V580H309.052V577.552C308.62 578.32 307.972 578.96 307.108 579.472C306.26 579.968 305.268 580.216 304.132 580.216C302.964 580.216 301.908 579.928 300.964 579.352C300.02 578.776 299.276 577.968 298.732 576.928C298.188 575.888 297.916 574.704 297.916 573.376ZM309.052 573.4C309.052 572.408 308.852 571.544 308.452 570.808C308.052 570.072 307.508 569.512 306.82 569.128C306.148 568.728 305.404 568.528 304.588 568.528C303.772 568.528 303.028 568.72 302.356 569.104C301.684 569.488 301.148 570.048 300.748 570.784C300.348 571.52 300.148 572.384 300.148 573.376C300.148 574.384 300.348 575.264 300.748 576.016C301.148 576.752 301.684 577.32 302.356 577.72C303.028 578.104 303.772 578.296 304.588 578.296C305.404 578.296 306.148 578.104 306.82 577.72C307.508 577.32 308.052 576.752 308.452 576.016C308.852 575.264 309.052 574.392 309.052 573.4ZM315.335 573.4C315.335 572.04 315.607 570.856 316.151 569.848C316.695 568.824 317.447 568.032 318.407 567.472C319.383 566.912 320.495 566.632 321.743 566.632C323.359 566.632 324.687 567.024 325.727 567.808C326.783 568.592 327.479 569.68 327.815 571.072H325.463C325.239 570.272 324.799 569.64 324.143 569.176C323.503 568.712 322.703 568.48 321.743 568.48C320.495 568.48 319.487 568.912 318.719 569.776C317.951 570.624 317.567 571.832 317.567 573.4C317.567 574.984 317.951 576.208 318.719 577.072C319.487 577.936 320.495 578.368 321.743 578.368C322.703 578.368 323.503 578.144 324.143 577.696C324.783 577.248 325.223 576.608 325.463 575.776H327.815C327.463 577.12 326.759 578.2 325.703 579.016C324.647 579.816 323.327 580.216 321.743 580.216C320.495 580.216 319.383 579.936 318.407 579.376C317.447 578.816 316.695 578.024 316.151 577C315.607 575.976 315.335 574.776 315.335 573.4ZM334.593 568.648V576.4C334.593 577.04 334.729 577.496 335.001 577.768C335.273 578.024 335.745 578.152 336.417 578.152H338.025V580H336.057C334.841 580 333.929 579.72 333.321 579.16C332.713 578.6 332.409 577.68 332.409 576.4V568.648H330.705V566.848H332.409V563.536H334.593V566.848H338.025V568.648H334.593ZM362.886 583.168L359.55 579.832C358.734 580.056 357.902 580.168 357.054 580.168C355.502 580.168 354.086 579.808 352.806 579.088C351.526 578.352 350.51 577.336 349.758 576.04C349.022 574.728 348.654 573.256 348.654 571.624C348.654 569.992 349.022 568.528 349.758 567.232C350.51 565.92 351.526 564.904 352.806 564.184C354.086 563.448 355.502 563.08 357.054 563.08C358.622 563.08 360.046 563.448 361.326 564.184C362.606 564.904 363.614 565.912 364.35 567.208C365.086 568.504 365.454 569.976 365.454 571.624C365.454 573.224 365.102 574.664 364.398 575.944C363.694 577.224 362.726 578.232 361.494 578.968L365.718 583.168H362.886ZM350.886 571.624C350.886 572.952 351.15 574.12 351.678 575.128C352.222 576.136 352.958 576.912 353.886 577.456C354.83 578 355.886 578.272 357.054 578.272C358.222 578.272 359.27 578 360.198 577.456C361.142 576.912 361.878 576.136 362.406 575.128C362.95 574.12 363.222 572.952 363.222 571.624C363.222 570.28 362.95 569.112 362.406 568.12C361.878 567.112 361.15 566.336 360.222 565.792C359.294 565.248 358.238 564.976 357.054 564.976C355.87 564.976 354.814 565.248 353.886 565.792C352.958 566.336 352.222 567.112 351.678 568.12C351.15 569.112 350.886 570.28 350.886 571.624ZM381.248 566.848V580H379.064V578.056C378.648 578.728 378.064 579.256 377.312 579.64C376.576 580.008 375.76 580.192 374.864 580.192C373.84 580.192 372.92 579.984 372.104 579.568C371.288 579.136 370.64 578.496 370.16 577.648C369.696 576.8 369.464 575.768 369.464 574.552V566.848H371.624V574.264C371.624 575.56 371.952 576.56 372.608 577.264C373.264 577.952 374.16 578.296 375.296 578.296C376.464 578.296 377.384 577.936 378.056 577.216C378.728 576.496 379.064 575.448 379.064 574.072V566.848H381.248ZM398.135 572.92C398.135 573.336 398.111 573.776 398.063 574.24H387.551C387.631 575.536 388.071 576.552 388.871 577.288C389.687 578.008 390.671 578.368 391.823 578.368C392.767 578.368 393.551 578.152 394.175 577.72C394.815 577.272 395.263 576.68 395.519 575.944H397.871C397.519 577.208 396.815 578.24 395.759 579.04C394.703 579.824 393.391 580.216 391.823 580.216C390.575 580.216 389.455 579.936 388.463 579.376C387.487 578.816 386.719 578.024 386.159 577C385.599 575.96 385.319 574.76 385.319 573.4C385.319 572.04 385.591 570.848 386.135 569.824C386.679 568.8 387.439 568.016 388.415 567.472C389.407 566.912 390.543 566.632 391.823 566.632C393.071 566.632 394.175 566.904 395.135 567.448C396.095 567.992 396.831 568.744 397.343 569.704C397.871 570.648 398.135 571.72 398.135 572.92ZM395.879 572.464C395.879 571.632 395.695 570.92 395.327 570.328C394.959 569.72 394.455 569.264 393.815 568.96C393.191 568.64 392.495 568.48 391.727 568.48C390.623 568.48 389.679 568.832 388.895 569.536C388.127 570.24 387.687 571.216 387.575 572.464H395.879ZM404.402 568.984C404.786 568.232 405.33 567.648 406.034 567.232C406.754 566.816 407.626 566.608 408.65 566.608V568.864H408.074C405.626 568.864 404.402 570.192 404.402 572.848V580H402.218V566.848H404.402V568.984ZM423.699 566.848L415.779 586.192H413.523L416.115 579.856L410.811 566.848H413.235L417.363 577.504L421.443 566.848H423.699Z" fill="white"/>
<path d="M287.208 457L281.896 447.88H278.376V457H275.464V434.696H282.664C284.349 434.696 285.768 434.984 286.92 435.56C288.093 436.136 288.968 436.915 289.544 437.896C290.12 438.877 290.408 439.997 290.408 441.256C290.408 442.792 289.96 444.147 289.064 445.32C288.189 446.493 286.867 447.272 285.096 447.656L290.696 457H287.208ZM278.376 445.544H282.664C284.243 445.544 285.427 445.16 286.216 444.392C287.005 443.603 287.4 442.557 287.4 441.256C287.4 439.933 287.005 438.909 286.216 438.184C285.448 437.459 284.264 437.096 282.664 437.096H278.376V445.544ZM312.533 447.56C312.533 448.115 312.501 448.701 312.437 449.32H298.421C298.527 451.048 299.114 452.403 300.181 453.384C301.269 454.344 302.581 454.824 304.117 454.824C305.375 454.824 306.421 454.536 307.253 453.96C308.106 453.363 308.703 452.573 309.045 451.592H312.181C311.711 453.277 310.773 454.653 309.365 455.72C307.957 456.765 306.207 457.288 304.117 457.288C302.453 457.288 300.959 456.915 299.637 456.168C298.335 455.421 297.311 454.365 296.565 453C295.818 451.613 295.445 450.013 295.445 448.2C295.445 446.387 295.807 444.797 296.533 443.432C297.258 442.067 298.271 441.021 299.573 440.296C300.895 439.549 302.41 439.176 304.117 439.176C305.781 439.176 307.253 439.539 308.533 440.264C309.813 440.989 310.794 441.992 311.477 443.272C312.181 444.531 312.533 445.96 312.533 447.56ZM309.525 446.952C309.525 445.843 309.279 444.893 308.789 444.104C308.298 443.293 307.626 442.685 306.773 442.28C305.941 441.853 305.013 441.64 303.989 441.64C302.517 441.64 301.258 442.109 300.213 443.048C299.189 443.987 298.602 445.288 298.453 446.952H309.525ZM316.889 448.168C316.889 446.376 317.251 444.808 317.977 443.464C318.702 442.099 319.694 441.043 320.953 440.296C322.233 439.549 323.662 439.176 325.241 439.176C326.606 439.176 327.875 439.496 329.049 440.136C330.222 440.755 331.118 441.576 331.737 442.6V433.32H334.681V457H331.737V453.704C331.161 454.749 330.307 455.613 329.177 456.296C328.046 456.957 326.723 457.288 325.209 457.288C323.651 457.288 322.233 456.904 320.953 456.136C319.694 455.368 318.702 454.291 317.977 452.904C317.251 451.517 316.889 449.939 316.889 448.168ZM331.737 448.2C331.737 446.877 331.47 445.725 330.937 444.744C330.403 443.763 329.678 443.016 328.761 442.504C327.865 441.971 326.873 441.704 325.785 441.704C324.697 441.704 323.705 441.96 322.809 442.472C321.913 442.984 321.198 443.731 320.665 444.712C320.131 445.693 319.865 446.845 319.865 448.168C319.865 449.512 320.131 450.685 320.665 451.688C321.198 452.669 321.913 453.427 322.809 453.96C323.705 454.472 324.697 454.728 325.785 454.728C326.873 454.728 327.865 454.472 328.761 453.96C329.678 453.427 330.403 452.669 330.937 451.688C331.47 450.685 331.737 449.523 331.737 448.2ZM356.754 439.464V457H353.842V454.408C353.287 455.304 352.508 456.008 351.506 456.52C350.524 457.011 349.436 457.256 348.242 457.256C346.876 457.256 345.65 456.979 344.562 456.424C343.474 455.848 342.61 454.995 341.97 453.864C341.351 452.733 341.042 451.357 341.042 449.736V439.464H343.922V449.352C343.922 451.08 344.359 452.413 345.234 453.352C346.108 454.269 347.303 454.728 348.818 454.728C350.375 454.728 351.602 454.248 352.498 453.288C353.394 452.328 353.842 450.931 353.842 449.096V439.464H356.754ZM372.422 457L368.262 450.472L364.262 457H361.222L366.886 448.296L361.222 439.464H364.518L368.678 445.96L372.646 439.464H375.686L370.054 448.136L375.718 457H372.422Z" fill="white"/>
<path d="M549.328 354H542.224L534.704 342.608V354H527.6V331.344H534.704L542.224 342.928V331.344H549.328V354ZM571.61 344.816C571.61 345.307 571.578 345.776 571.514 346.224H560.09C560.196 347.781 560.847 348.56 562.042 348.56C562.81 348.56 563.364 348.208 563.706 347.504H571.226C570.97 348.784 570.426 349.936 569.594 350.96C568.783 351.963 567.748 352.763 566.49 353.36C565.252 353.936 563.887 354.224 562.394 354.224C560.602 354.224 559.002 353.851 557.594 353.104C556.207 352.357 555.119 351.291 554.33 349.904C553.562 348.496 553.178 346.853 553.178 344.976C553.178 343.099 553.562 341.467 554.33 340.08C555.119 338.672 556.207 337.595 557.594 336.848C559.002 336.101 560.602 335.728 562.394 335.728C564.186 335.728 565.775 336.101 567.162 336.848C568.57 337.573 569.658 338.619 570.426 339.984C571.215 341.349 571.61 342.96 571.61 344.816ZM564.41 343.12C564.41 342.523 564.218 342.075 563.834 341.776C563.45 341.456 562.97 341.296 562.394 341.296C561.135 341.296 560.399 341.904 560.186 343.12H564.41ZM587.296 354L584.256 349.936L581.984 354H574.176L580.224 344.496L573.856 335.952H581.792L584.832 340.048L587.136 335.952H594.944L588.704 345.232L595.232 354H587.296ZM609.663 347.952V354H606.975C602.026 354 599.551 351.536 599.551 346.608V341.872H597.311V335.952H599.551V331.6H606.655V335.952H609.599V341.872H606.655V346.736C606.655 347.163 606.751 347.472 606.943 347.664C607.157 347.856 607.498 347.952 607.967 347.952H609.663ZM629.777 331.344V345.968C629.777 348.677 629.062 350.736 627.633 352.144C626.225 353.531 624.241 354.224 621.681 354.224C618.929 354.224 616.742 353.467 615.121 351.952C613.499 350.437 612.689 348.229 612.689 345.328H619.697C619.697 346.245 619.846 346.896 620.145 347.28C620.443 347.643 620.849 347.824 621.361 347.824C621.787 347.824 622.118 347.685 622.353 347.408C622.587 347.131 622.705 346.651 622.705 345.968V331.344H629.777ZM642.476 354.224C640.769 354.224 639.254 353.947 637.932 353.392C636.63 352.837 635.596 352.069 634.828 351.088C634.06 350.107 633.622 348.997 633.516 347.76H640.332C640.417 348.293 640.641 348.688 641.004 348.944C641.388 349.2 641.868 349.328 642.444 349.328C642.806 349.328 643.094 349.253 643.308 349.104C643.521 348.933 643.628 348.731 643.628 348.496C643.628 348.091 643.404 347.803 642.956 347.632C642.508 347.461 641.75 347.269 640.684 347.056C639.382 346.8 638.305 346.523 637.452 346.224C636.62 345.925 635.884 345.413 635.244 344.688C634.625 343.963 634.316 342.96 634.316 341.68C634.316 340.571 634.604 339.568 635.18 338.672C635.777 337.755 636.652 337.04 637.804 336.528C638.956 335.995 640.353 335.728 641.996 335.728C644.428 335.728 646.326 336.325 647.692 337.52C649.078 338.715 649.91 340.272 650.188 342.192H643.884C643.777 341.701 643.553 341.328 643.212 341.072C642.87 340.795 642.412 340.656 641.836 340.656C641.473 340.656 641.196 340.731 641.004 340.88C640.812 341.008 640.716 341.211 640.716 341.488C640.716 341.851 640.94 342.128 641.388 342.32C641.836 342.491 642.55 342.672 643.532 342.864C644.833 343.12 645.932 343.408 646.828 343.728C647.724 344.048 648.502 344.603 649.164 345.392C649.825 346.16 650.156 347.227 650.156 348.592C650.156 349.659 649.846 350.619 649.228 351.472C648.609 352.325 647.713 352.997 646.54 353.488C645.388 353.979 644.033 354.224 642.476 354.224Z" fill="white"/>
<path d="M353.208 354L347.896 344.88H344.376V354H341.464V331.696H348.664C350.349 331.696 351.768 331.984 352.92 332.56C354.093 333.136 354.968 333.915 355.544 334.896C356.12 335.877 356.408 336.997 356.408 338.256C356.408 339.792 355.96 341.147 355.064 342.32C354.189 343.493 352.867 344.272 351.096 344.656L356.696 354H353.208ZM344.376 342.544H348.664C350.243 342.544 351.427 342.16 352.216 341.392C353.005 340.603 353.4 339.557 353.4 338.256C353.4 336.933 353.005 335.909 352.216 335.184C351.448 334.459 350.264 334.096 348.664 334.096H344.376V342.544ZM378.533 344.56C378.533 345.115 378.501 345.701 378.437 346.32H364.421C364.527 348.048 365.114 349.403 366.181 350.384C367.269 351.344 368.581 351.824 370.117 351.824C371.375 351.824 372.421 351.536 373.253 350.96C374.106 350.363 374.703 349.573 375.045 348.592H378.181C377.711 350.277 376.773 351.653 375.365 352.72C373.957 353.765 372.207 354.288 370.117 354.288C368.453 354.288 366.959 353.915 365.637 353.168C364.335 352.421 363.311 351.365 362.565 350C361.818 348.613 361.445 347.013 361.445 345.2C361.445 343.387 361.807 341.797 362.533 340.432C363.258 339.067 364.271 338.021 365.573 337.296C366.895 336.549 368.41 336.176 370.117 336.176C371.781 336.176 373.253 336.539 374.533 337.264C375.813 337.989 376.794 338.992 377.477 340.272C378.181 341.531 378.533 342.96 378.533 344.56ZM375.525 343.952C375.525 342.843 375.279 341.893 374.789 341.104C374.298 340.293 373.626 339.685 372.773 339.28C371.941 338.853 371.013 338.64 369.989 338.64C368.517 338.64 367.258 339.109 366.213 340.048C365.189 340.987 364.602 342.288 364.453 343.952H375.525ZM382.889 345.168C382.889 343.376 383.251 341.808 383.977 340.464C384.702 339.099 385.694 338.043 386.953 337.296C388.233 336.549 389.651 336.176 391.209 336.176C392.745 336.176 394.078 336.507 395.209 337.168C396.339 337.829 397.182 338.661 397.737 339.664V336.464H400.681V354H397.737V350.736C397.161 351.76 396.297 352.613 395.145 353.296C394.014 353.957 392.691 354.288 391.177 354.288C389.619 354.288 388.211 353.904 386.953 353.136C385.694 352.368 384.702 351.291 383.977 349.904C383.251 348.517 382.889 346.939 382.889 345.168ZM397.737 345.2C397.737 343.877 397.47 342.725 396.937 341.744C396.403 340.763 395.678 340.016 394.761 339.504C393.865 338.971 392.873 338.704 391.785 338.704C390.697 338.704 389.705 338.96 388.809 339.472C387.913 339.984 387.198 340.731 386.665 341.712C386.131 342.693 385.865 343.845 385.865 345.168C385.865 346.512 386.131 347.685 386.665 348.688C387.198 349.669 387.913 350.427 388.809 350.96C389.705 351.472 390.697 351.728 391.785 351.728C392.873 351.728 393.865 351.472 394.761 350.96C395.678 350.427 396.403 349.669 396.937 348.688C397.47 347.685 397.737 346.523 397.737 345.2ZM406.114 345.2C406.114 343.387 406.476 341.808 407.202 340.464C407.927 339.099 408.93 338.043 410.21 337.296C411.511 336.549 412.994 336.176 414.658 336.176C416.812 336.176 418.583 336.699 419.97 337.744C421.378 338.789 422.306 340.24 422.754 342.096H419.618C419.319 341.029 418.732 340.187 417.858 339.568C417.004 338.949 415.938 338.64 414.658 338.64C412.994 338.64 411.65 339.216 410.626 340.368C409.602 341.499 409.09 343.109 409.09 345.2C409.09 347.312 409.602 348.944 410.626 350.096C411.65 351.248 412.994 351.824 414.658 351.824C415.938 351.824 417.004 351.525 417.858 350.928C418.711 350.331 419.298 349.477 419.618 348.368H422.754C422.284 350.16 421.346 351.6 419.938 352.688C418.53 353.755 416.77 354.288 414.658 354.288C412.994 354.288 411.511 353.915 410.21 353.168C408.93 352.421 407.927 351.365 407.202 350C406.476 348.635 406.114 347.035 406.114 345.2ZM431.791 338.864V349.2C431.791 350.053 431.972 350.661 432.335 351.024C432.698 351.365 433.327 351.536 434.223 351.536H436.367V354H433.743C432.122 354 430.906 353.627 430.095 352.88C429.284 352.133 428.879 350.907 428.879 349.2V338.864H426.607V336.464H428.879V332.048H431.791V336.464H436.367V338.864H431.791Z" fill="white"/>
<path d="M584.12 439.06V440.54H580.32V453H578.5V440.54H574.68V439.06H584.12ZM586.68 447.48C586.68 446.36 586.907 445.38 587.36 444.54C587.814 443.687 588.434 443.027 589.22 442.56C590.02 442.093 590.907 441.86 591.88 441.86C592.84 441.86 593.674 442.067 594.38 442.48C595.087 442.893 595.614 443.413 595.96 444.04V442.04H597.8V453H595.96V450.96C595.6 451.6 595.06 452.133 594.34 452.56C593.634 452.973 592.807 453.18 591.86 453.18C590.887 453.18 590.007 452.94 589.22 452.46C588.434 451.98 587.814 451.307 587.36 450.44C586.907 449.573 586.68 448.587 586.68 447.48ZM595.96 447.5C595.96 446.673 595.794 445.953 595.46 445.34C595.127 444.727 594.674 444.26 594.1 443.94C593.54 443.607 592.92 443.44 592.24 443.44C591.56 443.44 590.94 443.6 590.38 443.92C589.82 444.24 589.374 444.707 589.04 445.32C588.707 445.933 588.54 446.653 588.54 447.48C588.54 448.32 588.707 449.053 589.04 449.68C589.374 450.293 589.82 450.767 590.38 451.1C590.94 451.42 591.56 451.58 592.24 451.58C592.92 451.58 593.54 451.42 594.1 451.1C594.674 450.767 595.127 450.293 595.46 449.68C595.794 449.053 595.96 448.327 595.96 447.5ZM602.816 440.26C602.469 440.26 602.176 440.14 601.936 439.9C601.696 439.66 601.576 439.367 601.576 439.02C601.576 438.673 601.696 438.38 601.936 438.14C602.176 437.9 602.469 437.78 602.816 437.78C603.149 437.78 603.429 437.9 603.656 438.14C603.896 438.38 604.016 438.673 604.016 439.02C604.016 439.367 603.896 439.66 603.656 439.9C603.429 440.14 603.149 440.26 602.816 440.26ZM603.696 442.04V453H601.876V442.04H603.696ZM609.618 438.2V453H607.798V438.2H609.618ZM628.32 442.04L624.9 453H623.02L620.38 444.3L617.74 453H615.86L612.42 442.04H614.28L616.8 451.24L619.52 442.04H621.38L624.04 451.26L626.52 442.04H628.32ZM632.066 440.26C631.719 440.26 631.426 440.14 631.186 439.9C630.946 439.66 630.826 439.367 630.826 439.02C630.826 438.673 630.946 438.38 631.186 438.14C631.426 437.9 631.719 437.78 632.066 437.78C632.399 437.78 632.679 437.9 632.906 438.14C633.146 438.38 633.266 438.673 633.266 439.02C633.266 439.367 633.146 439.66 632.906 439.9C632.679 440.14 632.399 440.26 632.066 440.26ZM632.946 442.04V453H631.126V442.04H632.946ZM642.388 441.84C643.721 441.84 644.801 442.247 645.628 443.06C646.454 443.86 646.868 445.02 646.868 446.54V453H645.068V446.8C645.068 445.707 644.794 444.873 644.248 444.3C643.701 443.713 642.954 443.42 642.008 443.42C641.048 443.42 640.281 443.72 639.708 444.32C639.148 444.92 638.868 445.793 638.868 446.94V453H637.048V442.04H638.868V443.6C639.228 443.04 639.714 442.607 640.328 442.3C640.954 441.993 641.641 441.84 642.388 441.84ZM650.161 447.48C650.161 446.36 650.387 445.38 650.841 444.54C651.294 443.687 651.914 443.027 652.701 442.56C653.501 442.093 654.394 441.86 655.381 441.86C656.234 441.86 657.027 442.06 657.761 442.46C658.494 442.847 659.054 443.36 659.441 444V438.2H661.281V453H659.441V450.94C659.081 451.593 658.547 452.133 657.841 452.56C657.134 452.973 656.307 453.18 655.361 453.18C654.387 453.18 653.501 452.94 652.701 452.46C651.914 451.98 651.294 451.307 650.841 450.44C650.387 449.573 650.161 448.587 650.161 447.48ZM659.441 447.5C659.441 446.673 659.274 445.953 658.941 445.34C658.607 444.727 658.154 444.26 657.581 443.94C657.021 443.607 656.401 443.44 655.721 443.44C655.041 443.44 654.421 443.6 653.861 443.92C653.301 444.24 652.854 444.707 652.521 445.32C652.187 445.933 652.021 446.653 652.021 447.48C652.021 448.32 652.187 449.053 652.521 449.68C652.854 450.293 653.301 450.767 653.861 451.1C654.421 451.42 655.041 451.58 655.721 451.58C656.401 451.58 657.021 451.42 657.581 451.1C658.154 450.767 658.607 450.293 658.941 449.68C659.274 449.053 659.441 448.327 659.441 447.5ZM671.008 446.02C671.008 444.66 671.315 443.44 671.928 442.36C672.542 441.267 673.375 440.413 674.428 439.8C675.495 439.187 676.675 438.88 677.968 438.88C679.488 438.88 680.815 439.247 681.948 439.98C683.082 440.713 683.908 441.753 684.428 443.1H682.248C681.862 442.26 681.302 441.613 680.568 441.16C679.848 440.707 678.982 440.48 677.968 440.48C676.995 440.48 676.122 440.707 675.348 441.16C674.575 441.613 673.968 442.26 673.528 443.1C673.088 443.927 672.868 444.9 672.868 446.02C672.868 447.127 673.088 448.1 673.528 448.94C673.968 449.767 674.575 450.407 675.348 450.86C676.122 451.313 676.995 451.54 677.968 451.54C678.982 451.54 679.848 451.32 680.568 450.88C681.302 450.427 681.862 449.78 682.248 448.94H684.428C683.908 450.273 683.082 451.307 681.948 452.04C680.815 452.76 679.488 453.12 677.968 453.12C676.675 453.12 675.495 452.82 674.428 452.22C673.375 451.607 672.542 450.76 671.928 449.68C671.315 448.6 671.008 447.38 671.008 446.02ZM692.558 453.14C691.638 453.14 690.811 452.98 690.078 452.66C689.358 452.327 688.791 451.873 688.378 451.3C687.964 450.713 687.751 450.04 687.738 449.28H689.678C689.744 449.933 690.011 450.487 690.478 450.94C690.958 451.38 691.651 451.6 692.558 451.6C693.424 451.6 694.104 451.387 694.598 450.96C695.104 450.52 695.358 449.96 695.358 449.28C695.358 448.747 695.211 448.313 694.918 447.98C694.624 447.647 694.258 447.393 693.818 447.22C693.378 447.047 692.784 446.86 692.038 446.66C691.118 446.42 690.378 446.18 689.818 445.94C689.271 445.7 688.798 445.327 688.398 444.82C688.011 444.3 687.818 443.607 687.818 442.74C687.818 441.98 688.011 441.307 688.398 440.72C688.784 440.133 689.324 439.68 690.018 439.36C690.724 439.04 691.531 438.88 692.438 438.88C693.744 438.88 694.811 439.207 695.638 439.86C696.478 440.513 696.951 441.38 697.058 442.46H695.058C694.991 441.927 694.711 441.46 694.218 441.06C693.724 440.647 693.071 440.44 692.258 440.44C691.498 440.44 690.878 440.64 690.398 441.04C689.918 441.427 689.678 441.973 689.678 442.68C689.678 443.187 689.818 443.6 690.098 443.92C690.391 444.24 690.744 444.487 691.158 444.66C691.584 444.82 692.178 445.007 692.938 445.22C693.858 445.473 694.598 445.727 695.158 445.98C695.718 446.22 696.198 446.6 696.598 447.12C696.998 447.627 697.198 448.32 697.198 449.2C697.198 449.88 697.018 450.52 696.658 451.12C696.298 451.72 695.764 452.207 695.058 452.58C694.351 452.953 693.518 453.14 692.558 453.14ZM705.296 453.14C704.376 453.14 703.549 452.98 702.816 452.66C702.096 452.327 701.529 451.873 701.116 451.3C700.703 450.713 700.489 450.04 700.476 449.28H702.416C702.483 449.933 702.749 450.487 703.216 450.94C703.696 451.38 704.389 451.6 705.296 451.6C706.163 451.6 706.843 451.387 707.336 450.96C707.843 450.52 708.096 449.96 708.096 449.28C708.096 448.747 707.949 448.313 707.656 447.98C707.363 447.647 706.996 447.393 706.556 447.22C706.116 447.047 705.523 446.86 704.776 446.66C703.856 446.42 703.116 446.18 702.556 445.94C702.009 445.7 701.536 445.327 701.136 444.82C700.749 444.3 700.556 443.607 700.556 442.74C700.556 441.98 700.749 441.307 701.136 440.72C701.523 440.133 702.063 439.68 702.756 439.36C703.463 439.04 704.269 438.88 705.176 438.88C706.483 438.88 707.549 439.207 708.376 439.86C709.216 440.513 709.689 441.38 709.796 442.46H707.796C707.729 441.927 707.449 441.46 706.956 441.06C706.463 440.647 705.809 440.44 704.996 440.44C704.236 440.44 703.616 440.64 703.136 441.04C702.656 441.427 702.416 441.973 702.416 442.68C702.416 443.187 702.556 443.6 702.836 443.92C703.129 444.24 703.483 444.487 703.896 444.66C704.323 444.82 704.916 445.007 705.676 445.22C706.596 445.473 707.336 445.727 707.896 445.98C708.456 446.22 708.936 446.6 709.336 447.12C709.736 447.627 709.936 448.32 709.936 449.2C709.936 449.88 709.756 450.52 709.396 451.12C709.036 451.72 708.503 452.207 707.796 452.58C707.089 452.953 706.256 453.14 705.296 453.14Z" fill="white"/>
<circle cx="489.5" cy="488.5" r="65.5" fill="#A88FEE"/>
<path d="M482.544 449.544V474.264C482.544 477.016 481.696 479.224 480 480.888C478.304 482.52 476.064 483.336 473.28 483.336C470.464 483.336 468.208 482.504 466.512 480.84C464.816 479.144 463.968 476.84 463.968 473.928H468.336C468.368 475.56 468.784 476.888 469.584 477.912C470.416 478.936 471.648 479.448 473.28 479.448C474.912 479.448 476.128 478.968 476.928 478.008C477.728 477.016 478.128 475.768 478.128 474.264V449.544H482.544ZM502.861 483.432C500.845 483.432 499.037 483.096 497.437 482.424C495.837 481.72 494.573 480.76 493.645 479.544C492.717 478.296 492.205 476.872 492.109 475.272H496.621C496.749 476.584 497.357 477.656 498.445 478.488C499.565 479.32 501.021 479.736 502.813 479.736C504.477 479.736 505.789 479.368 506.749 478.632C507.709 477.896 508.189 476.968 508.189 475.848C508.189 474.696 507.677 473.848 506.653 473.304C505.629 472.728 504.045 472.168 501.901 471.624C499.949 471.112 498.349 470.6 497.101 470.088C495.885 469.544 494.829 468.76 493.933 467.736C493.069 466.68 492.637 465.304 492.637 463.608C492.637 462.264 493.037 461.032 493.837 459.912C494.637 458.792 495.773 457.912 497.245 457.272C498.717 456.6 500.397 456.264 502.285 456.264C505.197 456.264 507.549 457 509.341 458.472C511.133 459.944 512.093 461.96 512.221 464.52H507.853C507.757 463.144 507.197 462.04 506.173 461.208C505.181 460.376 503.837 459.96 502.141 459.96C500.573 459.96 499.325 460.296 498.397 460.968C497.469 461.64 497.005 462.52 497.005 463.608C497.005 464.472 497.277 465.192 497.821 465.768C498.397 466.312 499.101 466.76 499.933 467.112C500.797 467.432 501.981 467.8 503.485 468.216C505.373 468.728 506.909 469.24 508.093 469.752C509.277 470.232 510.285 470.968 511.117 471.96C511.981 472.952 512.429 474.248 512.461 475.848C512.461 477.288 512.061 478.584 511.261 479.736C510.461 480.888 509.325 481.8 507.853 482.472C506.413 483.112 504.749 483.432 502.861 483.432ZM486.288 489.544V493.096H477.168V523H472.8V493.096H463.632V489.544H486.288ZM503.377 523.432C501.361 523.432 499.553 523.096 497.953 522.424C496.353 521.72 495.089 520.76 494.161 519.544C493.233 518.296 492.721 516.872 492.625 515.272H497.137C497.265 516.584 497.873 517.656 498.961 518.488C500.081 519.32 501.537 519.736 503.329 519.736C504.993 519.736 506.305 519.368 507.265 518.632C508.225 517.896 508.705 516.968 508.705 515.848C508.705 514.696 508.193 513.848 507.169 513.304C506.145 512.728 504.561 512.168 502.417 511.624C500.465 511.112 498.865 510.6 497.617 510.088C496.401 509.544 495.345 508.76 494.449 507.736C493.585 506.68 493.153 505.304 493.153 503.608C493.153 502.264 493.553 501.032 494.353 499.912C495.153 498.792 496.289 497.912 497.761 497.272C499.233 496.6 500.913 496.264 502.801 496.264C505.713 496.264 508.065 497 509.857 498.472C511.649 499.944 512.609 501.96 512.737 504.52H508.369C508.273 503.144 507.713 502.04 506.689 501.208C505.697 500.376 504.353 499.96 502.657 499.96C501.089 499.96 499.841 500.296 498.913 500.968C497.985 501.64 497.521 502.52 497.521 503.608C497.521 504.472 497.793 505.192 498.337 505.768C498.913 506.312 499.617 506.76 500.449 507.112C501.313 507.432 502.497 507.8 504.001 508.216C505.889 508.728 507.425 509.24 508.609 509.752C509.793 510.232 510.801 510.968 511.633 511.96C512.497 512.952 512.945 514.248 512.977 515.848C512.977 517.288 512.577 518.584 511.777 519.736C510.977 520.888 509.841 521.8 508.369 522.472C506.929 523.112 505.265 523.432 503.377 523.432Z" fill="black"/>
</svg>
